# Blender v2.90.0 OBJ File: 'Basic_Building mats.blend'
# www.blender.org
mtllib door.mtl
o Cube.018_Cube.019
v 9.741028 -0.371738 6.975554
v 9.741028 1.796313 6.975554
v 10.036655 -0.371738 6.975554
v 10.036655 1.796313 6.975554
v 9.741028 -0.371738 8.585604
v 9.741028 1.796313 8.585604
v 10.036655 -0.371738 8.585604
v 10.036655 1.796313 8.585604
v 9.577464 0.578007 7.953832
v 9.649267 0.566672 8.119982
v 9.594652 0.688510 7.951096
v 9.632122 0.669403 8.097249
v 9.658436 0.628092 8.327694
v 9.644024 0.721177 8.253885
v 9.684070 0.749907 8.468835
v 9.665991 0.818288 8.396372
v 9.706654 0.864408 8.519449
v 9.707037 0.920639 8.468199
v 9.633519 0.739511 7.944034
v 9.609289 0.748891 8.087018
v 9.619608 0.790835 8.223181
v 9.655746 0.886302 8.369386
v 9.692448 0.980354 8.391730
v 9.613239 0.813643 8.080323
v 9.615337 0.851737 8.194754
v 9.582191 0.890251 8.095510
v 9.586323 0.901798 8.168892
v 9.677563 0.954530 8.306966
v 9.591074 0.956751 8.205961
v 9.694569 1.079964 8.324659
v 9.588308 1.002378 8.193181
v 9.695409 1.198417 8.236626
v 9.583524 1.045697 8.151907
v 9.650945 1.151369 8.033467
v 9.579892 1.033947 8.090992
v 9.678052 1.067022 7.896781
v 9.575451 0.973276 8.053190
v 9.647713 0.829965 7.925310
v 9.577412 0.924689 8.057400
v 9.598261 0.920872 8.105177
v 9.600567 0.927319 8.146144
v 9.603220 0.957997 8.166839
v 9.601676 0.983469 8.159704
v 9.599005 1.007653 8.136662
v 9.596977 1.001092 8.102655
v 9.594498 0.967222 8.081552
v 9.595592 0.940098 8.083902
v 9.685391 1.158191 7.833104
v 9.552515 0.852233 7.853351
v 9.497969 0.729400 7.864195
v 9.504602 0.629937 7.901272
v 9.526652 0.528847 7.900196
v 9.692828 0.478894 7.907555
v 9.674735 1.101576 8.374714
v 9.637857 1.236619 8.302532
v 9.610339 1.244558 8.060026
v 9.689694 1.230516 7.813742
v 9.641769 1.178776 7.900364
v 9.649527 1.425474 8.335898
v 9.664260 1.308435 7.835272
v 9.642423 1.420167 7.975569
v 9.683530 1.256815 8.500372
v 9.675314 0.512260 7.962977
v 9.707263 1.072835 8.526381
v 9.738497 0.486977 8.137405
v 9.737791 0.571486 8.326717
v 9.702038 0.726562 8.479047
v 9.708619 0.429547 7.941813
v 9.727231 0.439654 8.020690
v 9.739645 0.436052 8.135678
v 9.730177 0.435269 8.332965
v 9.540924 0.227967 7.929368
v 9.572838 0.231658 8.045305
v 9.596512 0.227755 8.149137
v 9.677921 0.227993 8.343660
v 9.568480 0.187447 7.886489
v 9.589485 0.190731 8.021456
v 9.630556 0.181080 8.171382
v 9.688122 0.177630 8.336500
v 9.609051 0.099589 7.820769
v 9.663975 -0.095315 7.815562
v 9.619950 0.074039 7.844829
v 9.678713 -0.103430 7.846178
v 9.610473 0.078925 7.891158
v 9.648092 -0.080681 7.893221
v 9.618234 0.074475 7.972499
v 9.650076 -0.081357 7.965355
v 9.628292 0.077533 8.005826
v 9.678432 -0.100232 8.022015
v 9.611200 0.077750 8.061308
v 9.651461 -0.081923 8.068897
v 9.613435 0.077519 8.135137
v 9.666207 -0.072622 8.131082
v 9.678722 0.076312 8.214532
v 9.719410 -0.067950 8.191662
v 9.577464 0.578007 7.576107
v 9.649267 0.566672 7.409957
v 9.594652 0.688510 7.578843
v 9.632121 0.669403 7.432690
v 9.658436 0.628092 7.202245
v 9.644024 0.721177 7.276053
v 9.684070 0.749907 7.061104
v 9.665991 0.818288 7.133567
v 9.706654 0.864408 7.010490
v 9.707037 0.920639 7.061740
v 9.633519 0.739510 7.585905
v 9.609288 0.748891 7.442920
v 9.619608 0.790835 7.306758
v 9.655746 0.886302 7.160553
v 9.692447 0.980354 7.138209
v 9.613239 0.813643 7.449615
v 9.615337 0.851736 7.335185
v 9.582191 0.890251 7.434430
v 9.586323 0.901798 7.361047
v 9.677563 0.954530 7.222973
v 9.591074 0.956751 7.323977
v 9.694569 1.079964 7.205279
v 9.588308 1.002378 7.336757
v 9.695409 1.198417 7.293313
v 9.583524 1.045697 7.378032
v 9.650945 1.151369 7.496472
v 9.579892 1.033947 7.438947
v 9.678052 1.067023 7.633158
v 9.575451 0.973276 7.476749
v 9.647713 0.829965 7.604629
v 9.577412 0.924689 7.472539
v 9.598261 0.920872 7.424761
v 9.600567 0.927319 7.383794
v 9.603219 0.957997 7.363100
v 9.601676 0.983469 7.370234
v 9.599005 1.007652 7.393277
v 9.596977 1.001092 7.427283
v 9.594498 0.967222 7.448387
v 9.595592 0.940098 7.446037
v 9.685391 1.158190 7.696835
v 9.552515 0.852233 7.676588
v 9.687731 1.162986 7.764969
v 9.529631 0.872936 7.764969
v 9.497969 0.729400 7.665743
v 9.459777 0.755805 7.764969
v 9.504602 0.629937 7.628666
v 9.441260 0.631413 7.764969
v 9.526652 0.528847 7.629743
v 9.519691 0.480944 7.764969
v 9.692828 0.478894 7.622384
v 9.725263 0.430684 7.764969
v 9.674735 1.101576 7.155225
v 9.637857 1.236619 7.227407
v 9.610339 1.244558 7.469913
v 9.689694 1.230516 7.716197
v 9.641769 1.178776 7.629575
v 9.703767 1.320153 7.764969
v 9.649527 1.425474 7.194040
v 9.664260 1.308435 7.694667
v 9.646436 1.361608 7.764969
v 9.642423 1.420167 7.554370
v 9.683530 1.256815 7.029567
v 9.675314 0.512260 7.566962
v 9.707262 1.072835 7.003557
v 9.738497 0.486977 7.392534
v 9.737791 0.571486 7.203221
v 9.702038 0.726562 7.050892
v 9.708619 0.429547 7.588126
v 9.736902 0.386561 7.764969
v 9.727231 0.439654 7.509249
v 9.739645 0.436052 7.394260
v 9.730177 0.435268 7.196974
v 9.540924 0.227967 7.600571
v 9.538955 0.229064 7.764969
v 9.572838 0.231658 7.484633
v 9.596512 0.227755 7.380801
v 9.677921 0.227993 7.186278
v 9.568480 0.187447 7.643450
v 9.579087 0.182709 7.764969
v 9.589485 0.190730 7.508482
v 9.630556 0.181080 7.358557
v 9.688122 0.177630 7.193438
v 9.609051 0.099589 7.709169
v 9.607499 0.101743 7.764969
v 9.663975 -0.095315 7.714376
v 9.646714 -0.092862 7.764969
v 9.619950 0.074039 7.685110
v 9.678713 -0.103430 7.683761
v 9.610473 0.078925 7.638781
v 9.648092 -0.080681 7.636718
v 9.618234 0.074475 7.557439
v 9.650076 -0.081357 7.564583
v 9.628292 0.077533 7.524112
v 9.678432 -0.100232 7.507924
v 9.611200 0.077750 7.468631
v 9.651461 -0.081923 7.461041
v 9.613435 0.077519 7.394802
v 9.666207 -0.072623 7.398857
v 9.678722 0.076312 7.315407
v 9.719410 -0.067950 7.338277
v 9.671923 -0.115936 7.764969
vt 0.375000 0.000000
vt 0.625000 0.000000
vt 0.625000 0.250000
vt 0.375000 0.250000
vt 0.625000 0.500000
vt 0.375000 0.500000
vt 0.625000 0.750000
vt 0.375000 0.750000
vt 0.625000 1.000000
vt 0.375000 1.000000
vt 0.125000 0.500000
vt 0.125000 0.750000
vt 0.875000 0.500000
vt 0.875000 0.750000
vt 0.000000 0.000000
vt 1.000000 0.000000
vt 1.000000 1.000000
vt 0.000000 1.000000
vt 1.000000 0.000000
vt 1.000000 1.000000
vt 1.000000 0.000000
vt 1.000000 1.000000
vt 1.000000 0.000000
vt 1.000000 1.000000
vt 1.000000 1.000000
vt 1.000000 1.000000
vt 0.000000 1.000000
vt 1.000000 1.000000
vt 1.000000 1.000000
vt 1.000000 1.000000
vt 1.000000 1.000000
vt 1.000000 1.000000
vt 1.000000 1.000000
vt 1.000000 1.000000
vt 1.000000 1.000000
vt 1.000000 1.000000
vt 1.000000 1.000000
vt 1.000000 1.000000
vt 1.000000 1.000000
vt 1.000000 1.000000
vt 1.000000 1.000000
vt 1.000000 1.000000
vt 1.000000 1.000000
vt 1.000000 1.000000
vt 1.000000 1.000000
vt 1.000000 1.000000
vt 1.000000 1.000000
vt 1.000000 1.000000
vt 1.000000 1.000000
vt 1.000000 1.000000
vt 1.000000 1.000000
vt 1.000000 1.000000
vt 1.000000 1.000000
vt 1.000000 1.000000
vt 1.000000 1.000000
vt 1.000000 1.000000
vt 1.000000 1.000000
vt 1.000000 1.000000
vt 1.000000 1.000000
vt 1.000000 1.000000
vt 1.000000 1.000000
vt 1.000000 1.000000
vt 1.000000 1.000000
vt 1.000000 1.000000
vt 1.000000 1.000000
vt 1.000000 1.000000
vt 1.000000 1.000000
vt 1.000000 1.000000
vt 1.000000 1.000000
vt 1.000000 1.000000
vt 1.000000 1.000000
vt 1.000000 1.000000
vt 1.000000 1.000000
vt 1.000000 1.000000
vt 1.000000 1.000000
vt 1.000000 1.000000
vt 1.000000 1.000000
vt 0.000000 0.000000
vt 1.000000 0.000000
vt 1.000000 0.000000
vt 1.000000 0.000000
vt 1.000000 1.000000
vt 0.000000 0.000000
vt 1.000000 0.000000
vt 1.000000 0.000000
vt 1.000000 1.000000
vt 1.000000 1.000000
vt 1.000000 1.000000
vt 0.000000 0.000000
vt 1.000000 0.000000
vt 1.000000 0.000000
vt 1.000000 1.000000
vt 0.000000 0.000000
vt 1.000000 1.000000
vt 1.000000 0.000000
vt 1.000000 0.000000
vt 1.000000 1.000000
vt 1.000000 1.000000
vt 1.000000 1.000000
vt 1.000000 1.000000
vt 1.000000 1.000000
vt 1.000000 1.000000
vt 1.000000 1.000000
vt 1.000000 1.000000
vt 1.000000 1.000000
vt 1.000000 1.000000
vt 1.000000 1.000000
vt 1.000000 1.000000
vt 1.000000 1.000000
vt 1.000000 1.000000
vt 1.000000 1.000000
vt 1.000000 1.000000
vt 1.000000 1.000000
vt 1.000000 1.000000
vt 1.000000 1.000000
vt 0.000000 0.000000
vt 0.000000 1.000000
vt 1.000000 1.000000
vt 1.000000 0.000000
vt 1.000000 1.000000
vt 1.000000 0.000000
vt 1.000000 1.000000
vt 1.000000 0.000000
vt 1.000000 1.000000
vt 1.000000 0.000000
vt 1.000000 1.000000
vt 1.000000 1.000000
vt 0.000000 1.000000
vt 1.000000 1.000000
vt 1.000000 1.000000
vt 1.000000 1.000000
vt 1.000000 1.000000
vt 1.000000 1.000000
vt 1.000000 1.000000
vt 1.000000 1.000000
vt 1.000000 1.000000
vt 1.000000 1.000000
vt 1.000000 1.000000
vt 1.000000 1.000000
vt 1.000000 1.000000
vt 1.000000 1.000000
vt 1.000000 1.000000
vt 1.000000 1.000000
vt 1.000000 1.000000
vt 1.000000 1.000000
vt 1.000000 1.000000
vt 1.000000 1.000000
vt 1.000000 1.000000
vt 1.000000 1.000000
vt 1.000000 1.000000
vt 1.000000 1.000000
vt 1.000000 1.000000
vt 1.000000 1.000000
vt 1.000000 1.000000
vt 1.000000 1.000000
vt 1.000000 1.000000
vt 1.000000 1.000000
vt 1.000000 1.000000
vt 1.000000 1.000000
vt 1.000000 1.000000
vt 1.000000 1.000000
vt 1.000000 1.000000
vt 1.000000 1.000000
vt 1.000000 1.000000
vt 1.000000 1.000000
vt 1.000000 1.000000
vt 1.000000 1.000000
vt 1.000000 1.000000
vt 1.000000 1.000000
vt 1.000000 1.000000
vt 1.000000 0.000000
vt 0.000000 0.000000
vt 1.000000 0.000000
vt 1.000000 0.000000
vt 0.000000 0.000000
vt 1.000000 1.000000
vt 1.000000 0.000000
vt 1.000000 0.000000
vt 1.000000 1.000000
vt 1.000000 0.000000
vt 0.000000 0.000000
vt 1.000000 0.000000
vt 0.000000 0.000000
vt 1.000000 1.000000
vt 1.000000 0.000000
vt 1.000000 0.000000
vt 1.000000 1.000000
vt 1.000000 1.000000
vt 1.000000 1.000000
vt 1.000000 1.000000
vt 1.000000 1.000000
vt 1.000000 1.000000
vt 1.000000 1.000000
vt 1.000000 1.000000
vt 1.000000 1.000000
vt 1.000000 1.000000
vt 1.000000 1.000000
vt 1.000000 1.000000
vt 1.000000 1.000000
vt 1.000000 1.000000
vt 1.000000 1.000000
vt 1.000000 1.000000
vn 0.0000 0.0000 -1.0000
vn 1.0000 0.0000 0.0000
vn 0.0000 0.0000 1.0000
vn -1.0000 0.0000 0.0000
vn 0.0000 -1.0000 0.0000
vn 0.0000 1.0000 0.0000
vn -0.9419 0.0400 0.3335
vn -0.9892 -0.1138 0.0926
vn -0.9820 -0.0284 0.1867
vn -0.9550 0.1295 0.2670
vn -0.9532 -0.2593 0.1553
vn -0.9905 0.1283 0.0497
vn -0.9533 -0.1247 0.2751
vn -0.8978 0.1583 0.4110
vn -0.8992 -0.4146 0.1394
vn -0.7650 -0.2405 0.5974
vn -0.7764 0.0466 0.6286
vn -0.8190 0.3460 0.4578
vn -0.8290 0.5587 0.0266
vn -0.8653 0.3245 -0.3821
vn -0.8574 0.0263 -0.5140
vn -0.9113 -0.3415 -0.2299
vn -0.9227 0.2673 -0.2779
vn -0.8979 -0.4192 0.1344
vn -0.8820 0.4706 -0.0244
vn -0.9443 -0.1406 -0.2976
vn -0.8274 -0.2521 0.5018
vn -0.8574 0.3237 0.4000
vn -0.9326 -0.2976 -0.2043
vn -0.8286 0.0150 0.5597
vn -0.6908 0.2680 0.6716
vn -0.8803 0.4361 0.1866
vn -0.8156 0.4398 0.3760
vn -0.9072 0.1152 0.4047
vn -0.8881 -0.3560 0.2908
vn -0.2541 -0.9210 0.2953
vn -0.4949 0.3480 0.7962
vn -0.5456 0.2511 0.7995
vn -0.9781 0.0831 -0.1907
vn -0.9989 0.0104 0.0462
vn -0.9531 0.2499 0.1711
vn -0.9703 0.2185 0.1038
vn -0.8508 -0.3618 -0.3811
vn -0.7254 -0.6655 0.1756
vn -0.9366 -0.3503 -0.0076
vn -0.8446 -0.2592 -0.4684
vn -0.9939 0.0819 -0.0734
vn -0.8402 -0.1105 -0.5309
vn -0.7532 -0.4328 -0.4954
vn -0.9744 0.0693 -0.2141
vn -0.9902 0.1269 0.0574
vn -0.9722 -0.0482 0.2293
vn -0.9387 -0.1785 -0.2948
vn -0.9762 -0.1059 0.1893
vn -0.9878 -0.0543 0.1460
vn -1.0000 0.0031 -0.0041
vn -0.5875 0.2480 0.7703
vn -0.5884 -0.0072 0.8086
vn -0.6199 -0.7675 0.1632
vn -0.6196 -0.7323 0.2824
vn -0.3441 -0.6952 0.6311
vn -0.5571 -0.6135 0.5597
vn -0.9063 -0.3999 0.1369
vn -0.9989 0.0337 -0.0336
vn -0.9460 -0.3110 -0.0910
vn -0.9291 -0.3028 0.2125
vn -0.6913 0.7088 -0.1403
vn -0.7976 0.5839 0.1516
vn -0.8890 0.4275 0.1638
vn -0.7740 0.6133 0.1573
vn -0.7931 -0.5807 0.1834
vn -0.7926 -0.6095 -0.0162
vn -0.8758 -0.3472 0.3353
vn -0.8483 -0.4943 0.1900
vn -0.9305 -0.3638 -0.0422
vn -0.9591 -0.2339 0.1595
vn -0.9233 -0.2846 0.2578
vn -0.9121 -0.2640 -0.3136
vn -0.9750 -0.2156 0.0547
vn -0.9113 -0.2144 0.3514
vn -0.9021 -0.2656 -0.3402
vn -0.9491 -0.2834 0.1374
vn -0.7274 -0.2879 0.6229
vn -0.9191 -0.3827 -0.0938
vn -0.9394 -0.3199 0.1232
vn -0.9467 -0.3158 -0.0633
vn -0.9818 -0.0177 0.1892
vn -0.8729 -0.2224 0.4343
vn -0.1999 -0.9550 0.2193
vn -0.5779 -0.8160 0.0123
vn -0.6870 -0.7042 0.1791
vn -0.9419 0.0400 -0.3335
vn -0.9892 -0.1138 -0.0926
vn -0.9820 -0.0284 -0.1867
vn -0.9550 0.1295 -0.2670
vn -0.9532 -0.2593 -0.1554
vn -0.9905 0.1283 -0.0497
vn -0.9533 -0.1247 -0.2751
vn -0.8978 0.1583 -0.4110
vn -0.8992 -0.4146 -0.1394
vn -0.7650 -0.2405 -0.5974
vn -0.7764 0.0466 -0.6286
vn -0.8190 0.3460 -0.4578
vn -0.8290 0.5587 -0.0266
vn -0.8653 0.3245 0.3821
vn -0.8574 0.0263 0.5140
vn -0.9113 -0.3415 0.2299
vn -0.9227 0.2673 0.2779
vn -0.8979 -0.4192 -0.1344
vn -0.8820 0.4706 0.0244
vn -0.9443 -0.1406 0.2976
vn -0.8274 -0.2521 -0.5018
vn -0.8574 0.3237 -0.4000
vn -0.9326 -0.2976 0.2043
vn -0.8286 0.0150 -0.5597
vn -0.6908 0.2680 -0.6716
vn -0.8803 0.4361 -0.1866
vn -0.8156 0.4398 -0.3760
vn -0.9072 0.1152 -0.4047
vn -0.8881 -0.3560 -0.2908
vn -0.2541 -0.9210 -0.2953
vn -0.4949 0.3480 -0.7962
vn -0.5456 0.2511 -0.7995
vn -0.9781 0.0831 0.1907
vn -0.9989 0.0104 -0.0462
vn -0.9530 0.2499 -0.1711
vn -0.9703 0.2185 -0.1038
vn -0.8508 -0.3618 0.3811
vn -0.7254 -0.6655 -0.1756
vn -0.9366 -0.3503 0.0076
vn -0.8446 -0.2592 0.4684
vn -0.9939 0.0819 0.0734
vn -0.8402 -0.1105 0.5309
vn -0.7532 -0.4328 0.4954
vn -0.9744 0.0693 0.2141
vn -0.9902 0.1269 -0.0574
vn -0.9722 -0.0482 -0.2293
vn -0.9387 -0.1785 0.2949
vn -0.9762 -0.1059 -0.1893
vn -0.9878 -0.0544 -0.1460
vn -1.0000 0.0031 0.0041
vn -0.5875 0.2480 -0.7703
vn -0.5884 -0.0072 -0.8086
vn -0.6199 -0.7675 -0.1632
vn -0.6196 -0.7323 -0.2824
vn -0.3441 -0.6952 -0.6311
vn -0.5571 -0.6135 -0.5597
vn -0.9063 -0.3999 -0.1369
vn -0.9989 0.0337 0.0336
vn -0.9460 -0.3110 0.0910
vn -0.9291 -0.3028 -0.2125
vn -0.6913 0.7088 0.1403
vn -0.7976 0.5839 -0.1516
vn -0.8890 0.4275 -0.1638
vn -0.7740 0.6133 -0.1573
vn -0.7932 -0.5807 -0.1834
vn -0.7926 -0.6095 0.0162
vn -0.8758 -0.3472 -0.3353
vn -0.8483 -0.4943 -0.1900
vn -0.9305 -0.3638 0.0422
vn -0.9591 -0.2339 -0.1595
vn -0.9234 -0.2846 -0.2578
vn -0.9121 -0.2640 0.3136
vn -0.9750 -0.2156 -0.0547
vn -0.9114 -0.2144 -0.3514
vn -0.9020 -0.2656 0.3402
vn -0.9491 -0.2834 -0.1374
vn -0.7274 -0.2879 -0.6229
vn -0.9191 -0.3827 0.0938
vn -0.9394 -0.3199 -0.1232
vn -0.9467 -0.3158 0.0633
vn -0.9818 -0.0177 -0.1892
vn -0.8729 -0.2224 -0.4343
vn -0.1999 -0.9550 -0.2193
vn -0.5779 -0.8160 -0.0123
vn -0.6871 -0.7042 -0.1791
vn -0.9981 -0.0132 0.0600
vn -0.9924 -0.0099 0.1223
vn -0.9919 -0.0162 0.1261
vn -0.9919 -0.0163 -0.1261
vn -0.9981 -0.0132 -0.0600
vn -0.9924 -0.0099 -0.1223
usemtl None
s off
f 1/1/1 2/2/1 4/3/1 3/4/1
f 3/4/2 4/3/2 8/5/2 7/6/2
f 7/6/3 8/5/3 6/7/3 5/8/3
f 5/8/4 6/7/4 2/9/4 1/10/4
f 3/11/5 7/6/5 5/8/5 1/12/5
f 8/5/6 4/13/6 2/14/6 6/7/6
f 9/15/7 10/16/7 12/17/7 11/18/7
f 12/17/8 10/16/8 13/19/8 14/20/8
f 14/20/9 13/19/9 15/21/9 16/22/9
f 16/22/10 15/21/10 17/23/10 18/24/10
f 12/17/11 14/20/11 21/25/11 20/26/11
f 11/18/12 12/17/12 20/26/12 19/27/12
f 14/20/13 16/22/13 22/28/13 21/25/13
f 16/22/14 18/24/14 23/29/14 22/28/14
f 24/30/15 25/31/15 27/32/15 26/33/15
f 27/32/16 25/31/16 28/34/16 29/35/16
f 29/35/17 28/34/17 30/36/17 31/37/17
f 31/37/18 30/36/18 32/38/18 33/39/18
f 33/39/19 32/38/19 34/40/19 35/41/19
f 35/41/20 34/40/20 36/42/20 37/43/20
f 37/43/21 36/42/21 38/44/21 39/45/21
f 39/45/22 38/44/22 24/30/22 26/33/22
f 27/32/23 29/35/23 42/46/23 41/47/23
f 33/39/24 35/41/24 45/48/24 44/49/24
f 26/33/25 27/32/25 41/47/25 40/50/25
f 29/35/26 31/37/26 43/51/26 42/46/26
f 35/41/27 37/43/27 46/52/27 45/48/27
f 39/45/28 26/33/28 40/50/28 47/53/28
f 31/37/29 33/39/29 44/49/29 43/51/29
f 37/43/30 39/45/30 47/53/30 46/52/30
f 38/44/31 36/42/31 48/54/31 49/55/31
f 49/55/32 48/54/32 137/56/32 138/57/32
f 49/55/33 138/57/33 140/58/33 50/59/33
f 50/59/34 140/58/34 142/60/34 51/61/34
f 51/61/35 142/60/35 144/62/35 52/63/35
f 52/63/36 144/62/36 146/64/36 53/65/36
f 49/55/37 50/59/37 11/18/37 19/27/37
f 49/55/38 19/27/38 38/44/38
f 24/30/39 38/44/39 19/27/39 20/26/39
f 25/31/40 24/30/40 20/26/40 21/25/40
f 28/34/41 25/31/41 21/25/41 22/28/41
f 30/36/42 28/34/42 22/28/42 23/29/42
f 32/38/43 30/36/43 54/66/43 55/67/43
f 34/40/44 32/38/44 55/67/44 56/68/44
f 36/42/45 34/40/45 56/68/45 58/69/45
f 36/42/46 58/69/46 48/54/46
f 137/56/47 48/54/47 57/70/47 152/71/47
f 57/70/48 48/54/48 58/69/48 60/72/48
f 152/71/49 57/70/49 60/72/49 155/73/49
f 60/72/50 58/69/50 56/68/50 61/74/50
f 56/68/51 55/67/51 59/75/51 61/74/51
f 55/67/52 54/66/52 62/76/52 59/75/52
f 30/36/53 23/29/53 54/66/53
f 62/76/54 54/66/54 23/29/54 64/77/54
f 23/29/55 18/24/55 64/77/55
f 18/24/56 17/23/56 64/77/56
f 50/59/57 51/61/57 11/18/57
f 51/61/58 52/63/58 9/15/58 11/18/58
f 10/16/59 9/15/59 63/78/59 65/79/59
f 13/19/60 10/16/60 65/79/60 66/80/60
f 9/15/61 52/63/61 53/65/61 63/78/61
f 15/21/62 13/19/62 66/80/62 67/81/62
f 63/78/63 53/65/63 68/82/63 69/83/63
f 66/80/64 65/79/64 70/84/64 71/85/64
f 53/65/65 146/64/65 164/86/65 68/82/65
f 65/79/66 63/78/66 69/83/66 70/84/66
f 68/82/67 164/86/67 169/87/67 72/88/67
f 70/84/68 69/83/68 73/89/68 74/90/68
f 71/85/69 70/84/69 74/90/69 75/91/69
f 69/83/70 68/82/70 72/88/70 73/89/70
f 73/89/71 72/88/71 76/92/71 77/93/71
f 72/88/72 169/87/72 174/94/72 76/92/72
f 75/91/73 74/90/73 78/95/73 79/96/73
f 74/90/74 73/89/74 77/93/74 78/95/74
f 76/92/75 174/94/75 179/97/75 80/98/75
f 80/98/76 179/97/76 181/99/76 81/100/76
f 80/98/77 81/100/77 83/101/77 82/102/77
f 82/102/78 83/101/78 85/103/78 84/104/78
f 84/104/79 85/103/79 87/105/79 86/106/79
f 86/106/80 87/105/80 89/107/80 88/108/80
f 88/108/81 89/107/81 91/109/81 90/110/81
f 90/110/82 91/109/82 93/111/82 92/112/82
f 92/112/83 93/111/83 95/113/83 94/114/83
f 82/102/84 84/104/84 76/92/84 80/98/84
f 84/104/85 86/106/85 77/93/85 76/92/85
f 77/93/86 86/106/86 88/108/86 90/110/86
f 90/110/87 92/112/87 78/95/87 77/93/87
f 92/112/88 94/114/88 79/96/88 78/95/88
f 93/111/89 91/109/89 89/107/89 95/113/89
f 89/107/90 87/105/90 85/103/90 83/101/90
f 81/100/91 181/99/91 196/115/91 83/101/91
f 96/116/92 98/117/92 99/118/92 97/119/92
f 99/118/93 101/120/93 100/121/93 97/119/93
f 101/120/94 103/122/94 102/123/94 100/121/94
f 103/122/95 105/124/95 104/125/95 102/123/95
f 99/118/96 107/126/96 108/127/96 101/120/96
f 98/117/97 106/128/97 107/126/97 99/118/97
f 101/120/98 108/127/98 109/129/98 103/122/98
f 103/122/99 109/129/99 110/130/99 105/124/99
f 111/131/100 113/132/100 114/133/100 112/134/100
f 114/133/101 116/135/101 115/136/101 112/134/101
f 116/135/102 118/137/102 117/138/102 115/136/102
f 118/137/103 120/139/103 119/140/103 117/138/103
f 120/139/104 122/141/104 121/142/104 119/140/104
f 122/141/105 124/143/105 123/144/105 121/142/105
f 124/143/106 126/145/106 125/146/106 123/144/106
f 126/145/107 113/132/107 111/131/107 125/146/107
f 114/133/108 128/147/108 129/148/108 116/135/108
f 120/139/109 131/149/109 132/150/109 122/141/109
f 113/132/110 127/151/110 128/147/110 114/133/110
f 116/135/111 129/148/111 130/152/111 118/137/111
f 122/141/112 132/150/112 133/153/112 124/143/112
f 126/145/113 134/154/113 127/151/113 113/132/113
f 118/137/114 130/152/114 131/149/114 120/139/114
f 124/143/115 133/153/115 134/154/115 126/145/115
f 125/146/116 136/155/116 135/156/116 123/144/116
f 136/155/117 138/57/117 137/56/117 135/156/117
f 136/155/118 139/157/118 140/58/118 138/57/118
f 139/157/119 141/158/119 142/60/119 140/58/119
f 141/158/120 143/159/120 144/62/120 142/60/120
f 143/159/121 145/160/121 146/64/121 144/62/121
f 136/155/122 106/128/122 98/117/122 139/157/122
f 136/155/123 125/146/123 106/128/123
f 111/131/124 107/126/124 106/128/124 125/146/124
f 112/134/125 108/127/125 107/126/125 111/131/125
f 115/136/126 109/129/126 108/127/126 112/134/126
f 117/138/127 110/130/127 109/129/127 115/136/127
f 119/140/128 148/161/128 147/162/128 117/138/128
f 121/142/129 149/163/129 148/161/129 119/140/129
f 123/144/130 151/164/130 149/163/130 121/142/130
f 123/144/131 135/156/131 151/164/131
f 137/56/132 152/71/132 150/165/132 135/156/132
f 150/165/133 154/166/133 151/164/133 135/156/133
f 152/71/134 155/73/134 154/166/134 150/165/134
f 154/166/135 156/167/135 149/163/135 151/164/135
f 149/163/136 156/167/136 153/168/136 148/161/136
f 148/161/137 153/168/137 157/169/137 147/162/137
f 117/138/138 147/162/138 110/130/138
f 157/169/139 159/170/139 110/130/139 147/162/139
f 110/130/140 159/170/140 105/124/140
f 105/124/141 159/170/141 104/125/141
f 139/157/142 98/117/142 141/158/142
f 141/158/143 98/117/143 96/116/143 143/159/143
f 97/119/144 160/171/144 158/172/144 96/116/144
f 100/121/145 161/173/145 160/171/145 97/119/145
f 96/116/146 158/172/146 145/160/146 143/159/146
f 102/123/147 162/174/147 161/173/147 100/121/147
f 158/172/148 165/175/148 163/176/148 145/160/148
f 161/173/149 167/177/149 166/178/149 160/171/149
f 145/160/150 163/176/150 164/86/150 146/64/150
f 160/171/151 166/178/151 165/175/151 158/172/151
f 163/176/152 168/179/152 169/87/152 164/86/152
f 166/178/153 171/180/153 170/181/153 165/175/153
f 167/177/154 172/182/154 171/180/154 166/178/154
f 165/175/155 170/181/155 168/179/155 163/176/155
f 170/181/156 175/183/156 173/184/156 168/179/156
f 168/179/157 173/184/157 174/94/157 169/87/157
f 172/182/158 177/185/158 176/186/158 171/180/158
f 171/180/159 176/186/159 175/183/159 170/181/159
f 173/184/160 178/187/160 179/97/160 174/94/160
f 178/187/161 180/188/161 181/99/161 179/97/161
f 178/187/162 182/189/162 183/190/162 180/188/162
f 182/189/163 184/191/163 185/192/163 183/190/163
f 184/191/164 186/193/164 187/194/164 185/192/164
f 186/193/165 188/195/165 189/196/165 187/194/165
f 188/195/166 190/197/166 191/198/166 189/196/166
f 190/197/167 192/199/167 193/200/167 191/198/167
f 192/199/168 194/201/168 195/202/168 193/200/168
f 182/189/169 178/187/169 173/184/169 184/191/169
f 184/191/170 173/184/170 175/183/170 186/193/170
f 175/183/171 190/197/171 188/195/171 186/193/171
f 190/197/172 175/183/172 176/186/172 192/199/172
f 192/199/173 176/186/173 177/185/173 194/201/173
f 193/200/174 195/202/174 189/196/174 191/198/174
f 189/196/175 183/190/175 185/192/175 187/194/175
f 180/188/176 183/190/176 196/115/176 181/99/176
f 44/49/177 45/48/177 40/50/177 41/47/177
f 43/51/178 44/49/178 41/47/178 42/46/178
f 47/53/179 40/50/179 45/48/179 46/52/179
f 133/153/180 132/150/180 127/151/180 134/154/180
f 132/150/181 131/149/181 128/147/181 127/151/181
f 131/149/182 130/152/182 129/148/182 128/147/182
