# Blender v2.90.0 OBJ File: 'Basic_Building mats.blend'
# www.blender.org
mtllib pillartorch.mtl
o Cylinder
v 7.294893 0.483320 7.778178
v 7.294893 1.646036 7.797800
v 7.438766 0.483320 7.824925
v 7.427232 1.646036 7.840800
v 7.527684 0.483320 7.947310
v 7.509022 1.646036 7.953373
v 7.527684 0.483320 8.098586
v 7.509022 1.646036 8.092523
v 7.438766 0.483320 8.220971
v 7.427232 1.646036 8.205097
v 7.294893 0.483320 8.267718
v 7.294893 1.646036 8.248096
v 7.151021 0.483320 8.220971
v 7.162554 1.646036 8.205097
v 7.062103 0.483320 8.098586
v 7.080765 1.646036 8.092523
v 7.062103 0.483320 7.947310
v 7.080765 1.646036 7.953373
v 7.151021 0.483320 7.824925
v 7.162555 1.646036 7.840799
v 7.294893 1.155386 7.856796
v 7.392555 1.155386 7.888528
v 7.452913 1.155386 7.971604
v 7.452913 1.155386 8.074292
v 7.392555 1.155386 8.157368
v 7.294893 1.155386 8.189100
v 7.197232 1.155386 8.157368
v 7.136873 1.155386 8.074292
v 7.136873 1.155386 7.971604
v 7.197232 1.155386 7.888528
v 7.294893 1.400711 7.842715
v 7.400832 1.400711 7.877137
v 7.466305 1.400711 7.967253
v 7.466305 1.400711 8.078643
v 7.400832 1.400711 8.168759
v 7.294893 1.400711 8.203181
v 7.188955 1.400711 8.168759
v 7.123482 1.400711 8.078643
v 7.123482 1.400711 7.967253
v 7.188955 1.400711 7.877137
v 7.404935 0.817727 7.871490
v 7.472944 0.817727 7.965096
v 7.472944 0.817727 8.080800
v 7.404935 0.817727 8.174407
v 7.294893 0.817727 8.210162
v 7.184852 0.817727 8.174407
v 7.116843 0.817727 8.080800
v 7.116843 0.817727 7.965096
v 7.184852 0.817727 7.871490
v 7.294893 0.817727 7.835735
v 7.294893 0.432211 7.812951
v 7.418326 0.432211 7.853057
v 7.494612 0.432211 7.958055
v 7.494612 0.432211 8.087841
v 7.418326 0.432211 8.192840
v 7.294893 0.432211 8.232945
v 7.171460 0.432211 8.192840
v 7.095174 0.432211 8.087841
v 7.095174 0.432211 7.958055
v 7.171460 0.432211 7.853057
v 7.294893 0.338057 7.839877
v 7.402500 0.338057 7.874840
v 7.469005 0.338057 7.966376
v 7.469005 0.338057 8.079520
v 7.402500 0.338057 8.171057
v 7.294893 0.338057 8.206020
v 7.187286 0.338057 8.171057
v 7.120782 0.338057 8.079520
v 7.120782 0.338057 7.966376
v 7.187286 0.338057 7.874840
v 7.294893 0.256393 7.819057
v 7.414738 0.256393 7.857996
v 7.488806 0.256393 7.959942
v 7.488806 0.256393 8.085955
v 7.414738 0.256393 8.187901
v 7.294893 0.256393 8.226840
v 7.175049 0.256393 8.187901
v 7.100981 0.256393 8.085955
v 7.100981 0.256393 7.959942
v 7.175049 0.256393 7.857996
v 7.431948 1.691572 7.834309
v 7.294893 1.691572 7.789778
v 7.516652 1.691572 7.950894
v 7.516652 1.691572 8.095002
v 7.431948 1.691572 8.211587
v 7.294893 1.691572 8.256119
v 7.157839 1.691572 8.211587
v 7.073135 1.691572 8.095002
v 7.073135 1.691572 7.950894
v 7.157839 1.691572 7.834309
v 7.422535 1.705179 7.847264
v 7.294893 1.705179 7.805790
v 7.501423 1.705179 7.955843
v 7.501422 1.705179 8.090054
v 7.422535 1.705179 8.198632
v 7.294893 1.705179 8.240106
v 7.167251 1.705179 8.198632
v 7.088364 1.705179 8.090054
v 7.088364 1.705179 7.955843
v 7.167251 1.705179 7.847264
v 7.431676 1.726669 7.834682
v 7.294893 1.726669 7.790239
v 7.516213 1.726669 7.951037
v 7.516213 1.726669 8.094859
v 7.431676 1.726669 8.211214
v 7.294893 1.726669 8.255658
v 7.158110 1.726669 8.211214
v 7.073573 1.726669 8.094859
v 7.073573 1.726669 7.951037
v 7.158110 1.726669 7.834682
v 7.438359 1.772244 7.825484
v 7.294893 1.772244 7.778869
v 7.527026 1.772244 7.947524
v 7.527026 1.772244 8.098372
v 7.438359 1.772244 8.220412
v 7.294893 1.772244 8.267027
v 7.151427 1.772244 8.220412
v 7.062760 1.772244 8.098372
v 7.062760 1.772244 7.947524
v 7.151427 1.772244 7.825484
v 7.430416 1.819991 7.836417
v 7.294893 1.819991 7.792383
v 7.514174 1.819991 7.951700
v 7.514174 1.819991 8.094197
v 7.430416 1.819991 8.209479
v 7.294893 1.819991 8.253513
v 7.159370 1.819991 8.209479
v 7.075613 1.819991 8.094197
v 7.075613 1.819991 7.951700
v 7.159370 1.819991 7.836417
v 7.411994 1.819991 7.861774
v 7.294893 1.819991 7.823726
v 7.484365 1.819991 7.961385
v 7.484365 1.819991 8.084512
v 7.411994 1.819991 8.184123
v 7.294893 1.819991 8.222171
v 7.177793 1.819991 8.184123
v 7.105421 1.819991 8.084512
v 7.105421 1.819991 7.961385
v 7.177793 1.819991 7.861774
v 7.389907 1.714841 7.892173
v 7.294893 1.714841 7.861302
v 7.448628 1.714841 7.972997
v 7.448628 1.714841 8.072900
v 7.389907 1.714841 8.153723
v 7.294893 1.714841 8.184595
v 7.199880 1.714841 8.153723
v 7.141158 1.714841 8.072900
v 7.141158 1.714841 7.972997
v 7.199880 1.714841 7.892173
v 7.294893 0.256393 8.022948
v 7.294893 1.714841 8.022948
vt 1.000000 0.894503
vt 1.000000 1.000000
vt 0.900000 1.000000
vt 0.900000 0.894504
vt 0.800000 1.000000
vt 0.800000 0.894504
vt 0.700000 1.000000
vt 0.700000 0.894503
vt 0.600000 1.000000
vt 0.600000 0.894504
vt 0.500000 1.000000
vt 0.500000 0.894504
vt 0.400000 1.000000
vt 0.400000 0.894504
vt 0.300000 1.000000
vt 0.300000 0.894504
vt 0.200000 1.000000
vt 0.200000 0.894504
vt 0.700000 1.000000
vt 0.600000 1.000000
vt 0.100000 1.000000
vt 0.100000 0.894504
vt -0.000000 1.000000
vt -0.000000 0.894504
vt 0.100000 0.500000
vt -0.000000 0.500000
vt -0.000000 0.500000
vt 0.100000 0.500000
vt 0.100000 0.644504
vt 0.100000 0.789007
vt -0.000000 0.789007
vt -0.000000 0.644504
vt 0.200000 0.644504
vt 0.200000 0.789007
vt 0.300000 0.644504
vt 0.300000 0.789007
vt 0.400000 0.644504
vt 0.400000 0.789007
vt 0.500000 0.644504
vt 0.500000 0.789007
vt 0.600000 0.644504
vt 0.600000 0.789007
vt 0.700000 0.644503
vt 0.700000 0.789007
vt 0.800000 0.644504
vt 0.800000 0.789007
vt 0.900000 0.644504
vt 0.900000 0.789007
vt 1.000000 0.644504
vt 1.000000 0.789007
vt 1.000000 0.500000
vt 0.900000 0.500000
vt 0.800000 0.500000
vt 0.700000 0.500000
vt 0.600000 0.500000
vt 0.500000 0.500000
vt 0.400000 0.500000
vt 0.300000 0.500000
vt 0.200000 0.500000
vt 0.400000 0.500000
vt 0.300000 0.500000
vt 0.300000 0.500000
vt 0.400000 0.500000
vt 0.200000 0.500000
vt 0.500000 0.500000
vt 0.600000 0.500000
vt 0.700000 0.500000
vt 0.900000 0.500000
vt 1.000000 0.500000
vt 0.800000 0.500000
vt 0.700000 0.500000
vt 0.600000 0.500000
vt 0.600000 0.500000
vt 0.700000 0.500000
vt 0.900000 0.500000
vt 1.000000 0.500000
vt 0.200000 0.500000
vt 0.500000 0.500000
vt 0.800000 0.500000
vt 0.100000 0.500000
vt -0.000000 0.500000
vt 0.900000 0.500000
vt 0.800000 0.500000
vt 0.900000 0.500000
vt 1.000000 0.500000
vt 0.200000 0.500000
vt 0.300000 0.500000
vt 0.500000 0.500000
vt 0.100000 0.500000
vt 0.400000 0.500000
vt -0.000000 0.500000
vt 0.500000 1.000000
vt 0.600000 1.000000
vt 0.500000 1.000000
vt 1.000000 1.000000
vt 0.900000 1.000000
vt 0.800000 1.000000
vt 0.100000 1.000000
vt -0.000000 1.000000
vt 0.200000 1.000000
vt 0.300000 1.000000
vt 0.400000 1.000000
vt 0.800000 1.000000
vt 0.900000 1.000000
vt 0.900000 1.000000
vt 0.800000 1.000000
vt 0.200000 1.000000
vt 0.100000 1.000000
vt 0.400000 1.000000
vt 0.700000 1.000000
vt -0.000000 1.000000
vt 0.300000 1.000000
vt 1.000000 1.000000
vt 0.100000 1.000000
vt 0.200000 1.000000
vt 0.200000 1.000000
vt 0.100000 1.000000
vt 0.500000 1.000000
vt 0.400000 1.000000
vt 0.700000 1.000000
vt -0.000000 1.000000
vt 0.300000 1.000000
vt 0.600000 1.000000
vt 1.000000 1.000000
vt 0.400000 1.000000
vt 0.500000 1.000000
vt 0.500000 1.000000
vt 0.400000 1.000000
vt 0.800000 1.000000
vt 0.700000 1.000000
vt -0.000000 1.000000
vt 0.300000 1.000000
vt 0.600000 1.000000
vt 1.000000 1.000000
vt 0.900000 1.000000
vt 0.700000 1.000000
vt 0.800000 1.000000
vt 0.800000 1.000000
vt 0.700000 1.000000
vt 0.100000 1.000000
vt -0.000000 1.000000
vt 0.300000 1.000000
vt 0.600000 1.000000
vt 1.000000 1.000000
vt 0.900000 1.000000
vt 0.200000 1.000000
vt 0.300000 1.000000
vt 0.400000 1.000000
vt 0.400000 1.000000
vt 0.300000 1.000000
vt 0.100000 1.000000
vt -0.000000 1.000000
vt 0.600000 1.000000
vt 1.000000 1.000000
vt 0.900000 1.000000
vt 0.200000 1.000000
vt 0.500000 1.000000
vt 0.600000 0.500000
vt 0.700000 1.000000
vt 0.600000 1.000000
vt 1.000000 1.000000
vt 0.900000 1.000000
vt 0.200000 1.000000
vt 0.500000 1.000000
vt 0.800000 1.000000
vt 0.100000 1.000000
vt -0.000000 1.000000
vt 0.200000 0.500000
vt 0.500000 0.500000
vt 0.800000 0.500000
vt 0.100000 0.500000
vt 0.400000 0.500000
vt 0.700000 0.500000
vt 1.000000 0.500000
vt 0.300000 0.500000
vt 0.900000 1.000000
vt 0.200000 1.000000
vt 0.500000 1.000000
vt 0.800000 1.000000
vt 0.100000 1.000000
vt 0.400000 1.000000
vt 0.700000 1.000000
vt -0.000000 1.000000
vt 0.300000 1.000000
vt 0.600000 1.000000
vn 0.3044 -0.1715 -0.9370
vn 0.7970 -0.1715 -0.5791
vn 0.9852 -0.1715 0.0000
vn 0.7970 -0.1715 0.5791
vn 0.3044 -0.1715 0.9370
vn -0.3044 -0.1715 0.9370
vn -0.7970 -0.1715 0.5791
vn -0.9852 -0.1715 0.0000
vn 0.7979 -0.1653 0.5797
vn -0.7970 -0.1715 -0.5791
vn -0.3044 -0.1715 -0.9370
vn -0.2594 -0.5433 -0.7985
vn -0.3085 0.0592 -0.9494
vn -0.8076 0.0592 -0.5868
vn -0.9982 0.0592 0.0000
vn -0.8076 0.0592 0.5868
vn -0.3085 0.0592 0.9494
vn 0.3085 0.0592 0.9494
vn 0.8076 0.0592 0.5867
vn 0.9982 0.0592 0.0000
vn 0.8076 0.0592 -0.5868
vn 0.3085 0.0592 -0.9494
vn -0.3086 -0.0545 -0.9496
vn -0.8078 -0.0545 -0.5869
vn -0.9985 -0.0545 0.0000
vn -0.8078 -0.0545 0.5869
vn -0.3086 -0.0545 0.9496
vn 0.3086 -0.0545 0.9496
vn 0.8078 -0.0545 0.5869
vn 0.9985 -0.0545 0.0000
vn 0.8078 -0.0545 -0.5869
vn 0.3086 -0.0545 -0.9496
vn 0.3050 0.1615 -0.9386
vn 0.7984 0.1615 -0.5801
vn 0.9869 0.1615 0.0000
vn 0.7984 0.1615 0.5801
vn 0.3050 0.1615 0.9386
vn -0.3050 0.1615 0.9386
vn -0.7984 0.1615 0.5801
vn -0.9869 0.1615 0.0000
vn -0.7984 0.1615 -0.5801
vn -0.3050 0.1615 -0.9386
vn -0.7807 -0.2624 0.5672
vn -0.6792 -0.5433 -0.4935
vn -0.8396 -0.5433 0.0000
vn -0.6792 -0.5433 0.4935
vn -0.2594 -0.5433 0.7985
vn 0.2594 -0.5433 0.7985
vn 0.6792 -0.5433 0.4935
vn 0.2594 -0.5433 -0.7985
vn 0.8396 -0.5433 0.0000
vn 0.6792 -0.5433 -0.4935
vn 0.7862 0.2356 0.5712
vn 0.7807 -0.2624 0.5672
vn 0.2982 -0.2624 -0.9177
vn -0.9649 -0.2624 0.0000
vn 0.2982 -0.2624 0.9177
vn 0.7807 -0.2624 -0.5672
vn -0.7807 -0.2624 -0.5672
vn -0.2982 -0.2624 0.9177
vn 0.9649 -0.2624 0.0000
vn -0.2982 -0.2624 -0.9177
vn -0.0000 -1.0000 0.0000
vn 0.3003 0.2356 -0.9243
vn -0.9718 0.2356 0.0000
vn 0.3003 0.2356 0.9243
vn 0.7862 0.2356 -0.5712
vn -0.7862 0.2356 -0.5712
vn -0.3003 0.2356 0.9243
vn 0.9718 0.2356 0.0000
vn -0.3003 0.2356 -0.9243
vn -0.7862 0.2356 0.5712
vn 0.2059 0.7457 0.6337
vn 0.3048 -0.1653 -0.9380
vn 0.9863 -0.1653 0.0000
vn 0.7979 -0.1652 -0.5797
vn -0.3048 -0.1653 -0.9380
vn -0.7979 -0.1653 -0.5797
vn -0.9863 -0.1653 0.0000
vn -0.7979 -0.1652 0.5797
vn -0.3048 -0.1652 0.9380
vn 0.3048 -0.1652 0.9380
vn 0.6664 -0.5669 -0.4842
vn 0.5390 0.7457 -0.3916
vn -0.5390 0.7457 -0.3916
vn -0.2059 0.7457 0.6337
vn 0.6663 0.7457 0.0000
vn -0.2059 0.7457 -0.6337
vn -0.5390 0.7457 0.3916
vn 0.5390 0.7457 0.3916
vn 0.2059 0.7457 -0.6337
vn -0.6663 0.7457 0.0000
vn -0.7872 -0.2309 -0.5719
vn -0.6664 -0.5670 -0.4842
vn -0.2545 -0.5670 0.7834
vn 0.8237 -0.5670 0.0000
vn -0.2546 -0.5670 -0.7834
vn -0.6664 -0.5670 0.4842
vn 0.6664 -0.5670 0.4842
vn 0.2546 -0.5670 -0.7834
vn -0.8237 -0.5670 0.0000
vn 0.2545 -0.5670 0.7834
vn -0.2984 0.2599 0.9184
vn -0.3007 -0.2308 0.9254
vn 0.9730 -0.2308 0.0000
vn -0.3007 -0.2308 -0.9254
vn -0.7872 -0.2309 0.5719
vn 0.7872 -0.2309 0.5719
vn 0.3007 -0.2308 -0.9254
vn -0.9730 -0.2308 0.0000
vn 0.3007 -0.2308 0.9254
vn 0.7872 -0.2309 -0.5719
vn 0.0000 1.0000 0.0000
vn 0.9656 0.2599 0.0000
vn -0.2984 0.2599 -0.9184
vn -0.7812 0.2599 0.5676
vn 0.7812 0.2599 0.5676
vn 0.2984 0.2599 -0.9184
vn -0.9656 0.2599 0.0000
vn 0.2984 0.2599 0.9184
vn 0.7812 0.2599 -0.5676
vn -0.7812 0.2599 -0.5676
vn 0.7660 0.3218 -0.5565
vn -0.7660 0.3218 -0.5565
vn -0.2926 0.3218 0.9005
vn 0.9468 0.3218 0.0000
vn -0.2926 0.3218 -0.9005
vn -0.7660 0.3218 0.5565
vn 0.7660 0.3218 0.5565
vn 0.2926 0.3218 -0.9005
vn -0.9468 0.3218 0.0000
vn 0.2926 0.3218 0.9005
usemtl None
s off
f 31/1/1 2/2/1 4/3/1 32/4/1
f 32/4/2 4/3/2 6/5/2 33/6/2
f 33/6/3 6/5/3 8/7/3 34/8/3
f 34/8/4 8/7/4 10/9/4 35/10/4
f 35/10/5 10/9/5 12/11/5 36/12/5
f 36/12/6 12/11/6 14/13/6 37/14/6
f 37/14/7 14/13/7 16/15/7 38/16/7
f 38/16/8 16/15/8 18/17/8 39/18/8
f 10/9/9 8/7/9 84/19/9 85/20/9
f 39/18/10 18/17/10 20/21/10 40/22/10
f 40/22/11 20/21/11 2/23/11 31/24/11
f 19/25/12 1/26/12 51/27/12 60/28/12
f 49/29/13 30/30/13 21/31/13 50/32/13
f 48/33/14 29/34/14 30/30/14 49/29/14
f 47/35/15 28/36/15 29/34/15 48/33/15
f 46/37/16 27/38/16 28/36/16 47/35/16
f 45/39/17 26/40/17 27/38/17 46/37/17
f 44/41/18 25/42/18 26/40/18 45/39/18
f 43/43/19 24/44/19 25/42/19 44/41/19
f 42/45/20 23/46/20 24/44/20 43/43/20
f 41/47/21 22/48/21 23/46/21 42/45/21
f 50/49/22 21/50/22 22/48/22 41/47/22
f 30/30/23 40/22/23 31/24/23 21/31/23
f 29/34/24 39/18/24 40/22/24 30/30/24
f 28/36/25 38/16/25 39/18/25 29/34/25
f 27/38/26 37/14/26 38/16/26 28/36/26
f 26/40/27 36/12/27 37/14/27 27/38/27
f 25/42/28 35/10/28 36/12/28 26/40/28
f 24/44/29 34/8/29 35/10/29 25/42/29
f 23/46/30 33/6/30 34/8/30 24/44/30
f 22/48/31 32/4/31 33/6/31 23/46/31
f 21/50/32 31/1/32 32/4/32 22/48/32
f 1/51/33 50/49/33 41/47/33 3/52/33
f 3/52/34 41/47/34 42/45/34 5/53/34
f 5/53/35 42/45/35 43/43/35 7/54/35
f 7/54/36 43/43/36 44/41/36 9/55/36
f 9/55/37 44/41/37 45/39/37 11/56/37
f 11/56/38 45/39/38 46/37/38 13/57/38
f 13/57/39 46/37/39 47/35/39 15/58/39
f 15/58/40 47/35/40 48/33/40 17/59/40
f 17/59/41 48/33/41 49/29/41 19/25/41
f 19/25/42 49/29/42 50/32/42 1/26/42
f 57/60/43 58/61/43 68/62/43 67/63/43
f 17/59/44 19/25/44 60/28/44 59/64/44
f 15/58/45 17/59/45 59/64/45 58/61/45
f 13/57/46 15/58/46 58/61/46 57/60/46
f 11/56/47 13/57/47 57/60/47 56/65/47
f 9/55/48 11/56/48 56/65/48 55/66/48
f 7/54/49 9/55/49 55/66/49 54/67/49
f 1/51/50 3/52/50 52/68/50 51/69/50
f 5/53/51 7/54/51 54/67/51 53/70/51
f 3/52/52 5/53/52 53/70/52 52/68/52
f 64/71/53 65/72/53 75/73/53 74/74/53
f 54/67/54 55/66/54 65/72/54 64/71/54
f 51/69/55 52/68/55 62/75/55 61/76/55
f 58/61/56 59/64/56 69/77/56 68/62/56
f 55/66/57 56/65/57 66/78/57 65/72/57
f 52/68/58 53/70/58 63/79/58 62/75/58
f 59/64/59 60/28/59 70/80/59 69/77/59
f 56/65/60 57/60/60 67/63/60 66/78/60
f 53/70/61 54/67/61 64/71/61 63/79/61
f 60/28/62 51/27/62 61/81/62 70/80/62
f 72/82/63 73/83/63 151/84/63
f 61/76/64 62/75/64 72/82/64 71/85/64
f 68/62/65 69/77/65 79/86/65 78/87/65
f 65/72/66 66/78/66 76/88/66 75/73/66
f 62/75/67 63/79/67 73/83/67 72/82/67
f 69/77/68 70/80/68 80/89/68 79/86/68
f 66/78/69 67/63/69 77/90/69 76/88/69
f 63/79/70 64/71/70 74/74/70 73/83/70
f 70/80/71 61/81/71 71/91/71 80/89/71
f 67/63/72 68/62/72 78/87/72 77/90/72
f 86/92/73 85/20/73 95/93/73 96/94/73
f 4/3/74 2/2/74 82/95/74 81/96/74
f 8/7/75 6/5/75 83/97/75 84/19/75
f 6/5/76 4/3/76 81/96/76 83/97/76
f 2/23/77 20/21/77 90/98/77 82/99/77
f 20/21/78 18/17/78 89/100/78 90/98/78
f 18/17/79 16/15/79 88/101/79 89/100/79
f 16/15/80 14/13/80 87/102/80 88/101/80
f 14/13/81 12/11/81 86/92/81 87/102/81
f 12/11/82 10/9/82 85/20/82 86/92/82
f 93/103/83 91/104/83 101/105/83 103/106/83
f 83/97/84 81/96/84 91/104/84 93/103/84
f 90/98/85 89/100/85 99/107/85 100/108/85
f 87/102/86 86/92/86 96/94/86 97/109/86
f 84/19/87 83/97/87 93/103/87 94/110/87
f 82/99/88 90/98/88 100/108/88 92/111/88
f 88/101/89 87/102/89 97/109/89 98/112/89
f 85/20/90 84/19/90 94/110/90 95/93/90
f 81/96/91 82/95/91 92/113/91 91/104/91
f 89/100/92 88/101/92 98/112/92 99/107/92
f 110/114/93 109/115/93 119/116/93 120/117/93
f 100/108/94 99/107/94 109/115/94 110/114/94
f 97/109/95 96/94/95 106/118/95 107/119/95
f 94/110/96 93/103/96 103/106/96 104/120/96
f 92/111/97 100/108/97 110/114/97 102/121/97
f 98/112/98 97/109/98 107/119/98 108/122/98
f 95/93/99 94/110/99 104/120/99 105/123/99
f 91/104/100 92/113/100 102/124/100 101/105/100
f 99/107/101 98/112/101 108/122/101 109/115/101
f 96/94/102 95/93/102 105/123/102 106/118/102
f 117/125/103 116/126/103 126/127/103 127/128/103
f 107/119/104 106/118/104 116/126/104 117/125/104
f 104/120/105 103/106/105 113/129/105 114/130/105
f 102/121/106 110/114/106 120/117/106 112/131/106
f 108/122/107 107/119/107 117/125/107 118/132/107
f 105/123/108 104/120/108 114/130/108 115/133/108
f 101/105/109 102/124/109 112/134/109 111/135/109
f 109/115/110 108/122/110 118/132/110 119/116/110
f 106/118/111 105/123/111 115/133/111 116/126/111
f 103/106/112 101/105/112 111/135/112 113/129/112
f 124/136/113 123/137/113 133/138/113 134/139/113
f 114/130/114 113/129/114 123/137/114 124/136/114
f 112/131/115 120/117/115 130/140/115 122/141/115
f 118/132/116 117/125/116 127/128/116 128/142/116
f 115/133/117 114/130/117 124/136/117 125/143/117
f 111/135/118 112/134/118 122/144/118 121/145/118
f 119/116/119 118/132/119 128/142/119 129/146/119
f 116/126/120 115/133/120 125/143/120 126/127/120
f 113/129/121 111/135/121 121/145/121 123/137/121
f 120/117/122 119/116/122 129/146/122 130/140/122
f 138/147/123 137/148/123 147/149/123 148/150/123
f 122/141/113 130/140/113 140/151/113 132/152/113
f 128/142/113 127/128/113 137/148/113 138/147/113
f 125/143/113 124/136/113 134/139/113 135/153/113
f 121/145/113 122/144/113 132/154/113 131/155/113
f 129/146/113 128/142/113 138/147/113 139/156/113
f 126/127/113 125/143/113 135/153/113 136/157/113
f 123/137/113 121/145/113 131/155/113 133/138/113
f 130/140/113 129/146/113 139/156/113 140/151/113
f 127/128/113 126/127/113 136/157/113 137/148/113
f 75/73/63 76/88/63 151/158/63
f 135/153/124 134/139/124 144/159/124 145/160/124
f 131/155/125 132/154/125 142/161/125 141/162/125
f 139/156/126 138/147/126 148/150/126 149/163/126
f 136/157/127 135/153/127 145/160/127 146/164/127
f 133/138/128 131/155/128 141/162/128 143/165/128
f 140/151/129 139/156/129 149/163/129 150/166/129
f 137/148/130 136/157/130 146/164/130 147/149/130
f 134/139/131 133/138/131 143/165/131 144/159/131
f 132/152/132 140/151/132 150/166/132 142/167/132
f 79/86/63 80/89/63 151/168/63
f 76/88/63 77/90/63 151/169/63
f 73/83/63 74/74/63 151/170/63
f 80/89/63 71/91/63 151/171/63
f 77/90/63 78/87/63 151/172/63
f 74/74/63 75/73/63 151/173/63
f 71/85/63 72/82/63 151/174/63
f 78/87/63 79/86/63 151/175/63
f 141/162/113 142/161/113 152/176/113
f 149/163/113 148/150/113 152/177/113
f 146/164/113 145/160/113 152/178/113
f 143/165/113 141/162/113 152/179/113
f 150/166/113 149/163/113 152/180/113
f 147/149/113 146/164/113 152/181/113
f 144/159/113 143/165/113 152/182/113
f 142/167/113 150/166/113 152/183/113
f 148/150/113 147/149/113 152/184/113
f 145/160/113 144/159/113 152/185/113
