# Blender v2.90.0 OBJ File: 'Basic_Building mats.blend'
# www.blender.org
mtllib spikes1.mtl
o Cylinder.004_Cylinder.003
v 1.855475 0.384430 10.690532
v 5.708446 1.914193 10.639971
v 1.858727 0.380106 10.759775
v 1.843922 0.422940 10.812407
v 1.819734 0.487840 10.817595
v 1.800332 0.536788 10.772302
v 1.797080 0.541112 10.703058
v 1.811885 0.498279 10.650427
v 1.836073 0.433379 10.645238
v 5.341473 1.690224 10.608383
v 5.344724 1.685900 10.677627
v 5.329920 1.728734 10.730258
v 5.305732 1.793634 10.735447
v 5.286329 1.842582 10.690153
v 5.283078 1.846906 10.620910
v 5.297882 1.804073 10.568278
v 5.322070 1.739173 10.563089
v 4.140902 1.041887 11.354332
v 4.140902 1.041887 7.209472
v 4.220374 1.074805 11.354332
v 4.220374 1.074805 7.209472
v 4.253292 1.154277 11.354332
v 4.253292 1.154277 7.209472
v 4.220374 1.233749 11.354332
v 4.220374 1.233750 7.209472
v 4.140902 1.266667 11.354332
v 4.140902 1.266668 7.209472
v 4.061430 1.233749 11.354332
v 4.061430 1.233749 7.209472
v 4.028512 1.154277 11.354332
v 4.028512 1.154278 7.209472
v 4.061430 1.074805 11.354332
v 4.061430 1.074805 7.209472
v 2.971906 0.640884 11.354333
v 2.971906 0.640884 7.209472
v 3.036074 0.667463 11.354333
v 3.036074 0.667464 7.209472
v 3.062653 0.731631 11.354333
v 3.062653 0.731631 7.209472
v 3.036074 0.795798 11.354333
v 3.036074 0.795799 7.209472
v 2.971906 0.822378 11.354333
v 2.971906 0.822378 7.209472
v 2.907738 0.795798 11.354333
v 2.907738 0.795799 7.209472
v 2.881159 0.731631 11.354333
v 2.881159 0.731631 7.209472
v 2.907738 0.667463 11.354333
v 2.907738 0.667463 7.209472
v 1.851692 0.385364 9.979891
v 5.700792 1.910952 10.192300
v 1.850924 0.379252 10.049072
v 1.833083 0.420732 10.101845
v 1.808621 0.485508 10.107297
v 1.791868 0.535633 10.062234
v 1.792636 0.541746 9.993052
v 1.810476 0.500265 9.940279
v 1.834938 0.435490 9.934828
v 5.336315 1.688346 10.133718
v 5.335546 1.682234 10.202899
v 5.317706 1.723714 10.255672
v 5.293244 1.788490 10.261124
v 5.276491 1.838615 10.216061
v 5.277259 1.844728 10.146880
v 5.295099 1.803247 10.094107
v 5.319561 1.738472 10.088655
v 1.572969 0.265138 9.568770
v 5.426388 1.794602 9.571635
v 1.575404 0.260450 9.638023
v 1.559984 0.303009 9.690701
v 1.535742 0.367884 9.695944
v 1.516878 0.417072 9.650682
v 1.514443 0.421760 9.581429
v 1.529863 0.379201 9.528751
v 1.554106 0.314326 9.523508
v 5.059795 1.570854 9.534552
v 5.062230 1.566166 9.603806
v 5.046810 1.608725 9.656483
v 5.022568 1.673600 9.661726
v 5.003704 1.722788 9.616464
v 5.001269 1.727476 9.547211
v 5.016689 1.684917 9.494534
v 5.040932 1.620042 9.489290
v 1.864888 0.402837 8.735874
v 5.715952 1.932513 8.603564
v 1.869388 0.399069 8.805080
v 1.855525 0.442322 8.857625
v 1.831419 0.507259 8.862728
v 1.811191 0.555841 8.817400
v 1.806690 0.559608 8.748194
v 1.820554 0.516355 8.695649
v 1.844660 0.451418 8.690546
v 5.348523 1.708263 8.580399
v 5.353024 1.704495 8.649605
v 5.339160 1.747749 8.702149
v 5.315054 1.812685 8.707253
v 5.294826 1.861267 8.661924
v 5.290326 1.865035 8.592718
v 5.304189 1.821781 8.540174
v 5.328295 1.756845 8.535070
v 1.629869 0.321910 7.985171
v 5.490879 1.814856 8.212802
v 1.629172 0.314792 8.054256
v 1.611741 0.355631 8.107662
v 1.587784 0.420505 8.114105
v 1.571337 0.471410 8.069810
v 1.572033 0.478528 8.000725
v 1.589465 0.437689 7.947318
v 1.613421 0.372815 7.940876
v 5.124610 1.595914 8.151642
v 5.123915 1.588796 8.220727
v 5.106483 1.629636 8.274134
v 5.082526 1.694509 8.280576
v 5.066079 1.745414 8.236280
v 5.066775 1.752532 8.167194
v 5.084207 1.711693 8.113789
v 5.108163 1.646819 8.107346
v 1.855411 0.410806 7.428852
v 5.699055 1.933036 7.740816
v 1.853120 0.404016 7.497936
v 1.834127 0.444984 7.550708
v 1.809558 0.509710 7.556254
v 1.793804 0.560280 7.511326
v 1.796095 0.567069 7.442242
v 1.815088 0.526102 7.389471
v 1.839657 0.461375 7.383924
v 5.335933 1.711128 7.672053
v 5.333642 1.704339 7.741138
v 5.314650 1.745307 7.793909
v 5.290080 1.810033 7.799456
v 5.274326 1.860603 7.754528
v 5.276617 1.867392 7.685444
v 5.295610 1.826424 7.632671
v 5.320180 1.761698 7.627125
v 1.912038 0.419755 9.172139
v 5.761372 1.949093 8.993646
v 1.917244 0.416302 9.241312
v 1.903912 0.459792 9.293798
v 1.879851 0.524750 9.298852
v 1.859156 0.573124 9.253513
v 1.853950 0.576577 9.184340
v 1.867282 0.533087 9.131853
v 1.891343 0.468129 9.126800
v 5.393753 1.724713 8.975244
v 5.398959 1.721260 9.044416
v 5.385627 1.764750 9.096903
v 5.361566 1.829708 9.101956
v 5.340871 1.878082 9.056617
v 5.335665 1.881535 8.987444
v 5.348998 1.838045 8.934958
v 5.373058 1.773087 8.929904
v 4.101171 1.127075 11.177400
v 4.081173 0.077922 11.174074
v 4.186366 1.125489 11.165628
v 4.166369 0.076335 11.162303
v 4.238291 1.124716 11.097053
v 4.218294 0.075563 11.093727
v 4.226527 1.125211 11.011843
v 4.206530 0.076057 11.008516
v 4.157966 1.126682 10.959913
v 4.137969 0.077529 10.956587
v 4.072770 1.128269 10.971684
v 4.052773 0.079115 10.968358
v 4.020846 1.129041 11.040260
v 4.000849 0.079887 11.036935
v 4.032609 1.128547 11.125470
v 4.012612 0.079393 11.122145
v 4.093944 1.100589 7.539530
v 4.073947 0.051435 7.536204
v 4.179140 1.099002 7.527759
v 4.159143 0.049849 7.524433
v 4.231064 1.098230 7.459183
v 4.211067 0.049076 7.455857
v 4.219300 1.098724 7.373973
v 4.199304 0.049571 7.370647
v 4.150740 1.100196 7.322043
v 4.130743 0.051042 7.318717
v 4.065544 1.101782 7.333815
v 4.045547 0.052629 7.330489
v 4.013619 1.102554 7.402390
v 3.993622 0.053401 7.399065
v 4.025383 1.102060 7.487601
v 4.005386 0.052906 7.484275
vt 1.000000 0.949164
vt 0.875000 1.000000
vt 0.875000 0.949164
vt 0.750000 1.000000
vt 0.750000 0.949164
vt 0.625000 1.000000
vt 0.625000 0.949164
vt 0.500000 1.000000
vt 0.500000 0.949164
vt 0.375000 1.000000
vt 0.375000 0.949164
vt 0.250000 1.000000
vt 0.250000 0.949164
vt 0.125000 1.000000
vt 0.125000 0.949164
vt 0.000000 1.000000
vt 0.000000 0.949164
vt 0.750000 0.490000
vt 0.919706 0.419706
vt 0.990000 0.250000
vt 0.919706 0.080294
vt 0.750000 0.010000
vt 0.580294 0.080294
vt 0.510000 0.250000
vt 0.580294 0.419706
vt 0.125000 0.500000
vt 0.000000 0.500000
vt 0.250000 0.500000
vt 0.375000 0.500000
vt 0.500000 0.500000
vt 0.625000 0.500000
vt 0.750000 0.500000
vt 0.875000 0.500000
vt 1.000000 0.500000
vt 1.000000 0.500000
vt 1.000000 1.000000
vt 0.875000 1.000000
vt 0.875000 0.500000
vt 0.750000 1.000000
vt 0.750000 0.500000
vt 0.625000 1.000000
vt 0.625000 0.500000
vt 0.500000 1.000000
vt 0.500000 0.500000
vt 0.375000 1.000000
vt 0.375000 0.500000
vt 0.250000 1.000000
vt 0.250000 0.500000
vt 0.419706 0.419706
vt 0.250000 0.490000
vt 0.080294 0.419706
vt 0.010000 0.250000
vt 0.080294 0.080294
vt 0.250000 0.010000
vt 0.419706 0.080294
vt 0.490000 0.250000
vt 0.125000 1.000000
vt 0.125000 0.500000
vt 0.000000 1.000000
vt 0.000000 0.500000
vt 0.750000 0.490000
vt 0.919706 0.419706
vt 0.990000 0.250000
vt 0.919706 0.080294
vt 0.750000 0.010000
vt 0.580294 0.080294
vt 0.510000 0.250000
vt 0.580294 0.419706
vt 1.000000 0.500000
vt 1.000000 1.000000
vt 0.875000 1.000000
vt 0.875000 0.500000
vt 0.750000 1.000000
vt 0.750000 0.500000
vt 0.625000 1.000000
vt 0.625000 0.500000
vt 0.500000 1.000000
vt 0.500000 0.500000
vt 0.375000 1.000000
vt 0.375000 0.500000
vt 0.250000 1.000000
vt 0.250000 0.500000
vt 0.419706 0.419706
vt 0.250000 0.490000
vt 0.080294 0.419706
vt 0.010000 0.250000
vt 0.080294 0.080294
vt 0.250000 0.010000
vt 0.419706 0.080294
vt 0.490000 0.250000
vt 0.125000 1.000000
vt 0.125000 0.500000
vt 0.000000 1.000000
vt 0.000000 0.500000
vt 0.750000 0.490000
vt 0.919706 0.419706
vt 0.990000 0.250000
vt 0.919706 0.080294
vt 0.750000 0.010000
vt 0.580294 0.080294
vt 0.510000 0.250000
vt 0.580294 0.419706
vt 1.000000 0.949164
vt 0.875000 1.000000
vt 0.875000 0.949164
vt 0.750000 1.000000
vt 0.750000 0.949164
vt 0.625000 1.000000
vt 0.625000 0.949164
vt 0.500000 1.000000
vt 0.500000 0.949164
vt 0.375000 1.000000
vt 0.375000 0.949164
vt 0.250000 1.000000
vt 0.250000 0.949164
vt 0.125000 1.000000
vt 0.125000 0.949164
vt 0.000000 1.000000
vt 0.000000 0.949164
vt 0.750000 0.490000
vt 0.919706 0.419706
vt 0.990000 0.250000
vt 0.919706 0.080294
vt 0.750000 0.010000
vt 0.580294 0.080294
vt 0.510000 0.250000
vt 0.580294 0.419706
vt 0.125000 0.500000
vt 0.000000 0.500000
vt 0.250000 0.500000
vt 0.375000 0.500000
vt 0.500000 0.500000
vt 0.625000 0.500000
vt 0.750000 0.500000
vt 0.875000 0.500000
vt 1.000000 0.500000
vt 1.000000 0.949164
vt 0.875000 1.000000
vt 0.875000 0.949164
vt 0.750000 1.000000
vt 0.750000 0.949164
vt 0.625000 1.000000
vt 0.625000 0.949164
vt 0.500000 1.000000
vt 0.500000 0.949164
vt 0.375000 1.000000
vt 0.375000 0.949164
vt 0.250000 1.000000
vt 0.250000 0.949164
vt 0.125000 1.000000
vt 0.125000 0.949164
vt 0.000000 1.000000
vt 0.000000 0.949164
vt 0.750000 0.490000
vt 0.919706 0.419706
vt 0.990000 0.250000
vt 0.919706 0.080294
vt 0.750000 0.010000
vt 0.580294 0.080294
vt 0.510000 0.250000
vt 0.580294 0.419706
vt 0.125000 0.500000
vt 0.000000 0.500000
vt 0.250000 0.500000
vt 0.375000 0.500000
vt 0.500000 0.500000
vt 0.625000 0.500000
vt 0.750000 0.500000
vt 0.875000 0.500000
vt 1.000000 0.500000
vt 1.000000 0.949164
vt 0.875000 1.000000
vt 0.875000 0.949164
vt 0.750000 1.000000
vt 0.750000 0.949164
vt 0.625000 1.000000
vt 0.625000 0.949164
vt 0.500000 1.000000
vt 0.500000 0.949164
vt 0.375000 1.000000
vt 0.375000 0.949164
vt 0.250000 1.000000
vt 0.250000 0.949164
vt 0.125000 1.000000
vt 0.125000 0.949164
vt 0.000000 1.000000
vt 0.000000 0.949164
vt 0.750000 0.490000
vt 0.919706 0.419706
vt 0.990000 0.250000
vt 0.919706 0.080294
vt 0.750000 0.010000
vt 0.580294 0.080294
vt 0.510000 0.250000
vt 0.580294 0.419706
vt 0.125000 0.500000
vt 0.000000 0.500000
vt 0.250000 0.500000
vt 0.375000 0.500000
vt 0.500000 0.500000
vt 0.625000 0.500000
vt 0.750000 0.500000
vt 0.875000 0.500000
vt 1.000000 0.500000
vt 1.000000 0.949164
vt 0.875000 1.000000
vt 0.875000 0.949164
vt 0.750000 1.000000
vt 0.750000 0.949164
vt 0.625000 1.000000
vt 0.625000 0.949164
vt 0.500000 1.000000
vt 0.500000 0.949164
vt 0.375000 1.000000
vt 0.375000 0.949164
vt 0.250000 1.000000
vt 0.250000 0.949164
vt 0.125000 1.000000
vt 0.125000 0.949164
vt 0.000000 1.000000
vt 0.000000 0.949164
vt 0.750000 0.490000
vt 0.919706 0.419706
vt 0.990000 0.250000
vt 0.919706 0.080294
vt 0.750000 0.010000
vt 0.580294 0.080294
vt 0.510000 0.250000
vt 0.580294 0.419706
vt 0.125000 0.500000
vt 0.000000 0.500000
vt 0.250000 0.500000
vt 0.375000 0.500000
vt 0.500000 0.500000
vt 0.625000 0.500000
vt 0.750000 0.500000
vt 0.875000 0.500000
vt 1.000000 0.500000
vt 1.000000 0.949164
vt 0.875000 1.000000
vt 0.875000 0.949164
vt 0.750000 1.000000
vt 0.750000 0.949164
vt 0.625000 1.000000
vt 0.625000 0.949164
vt 0.500000 1.000000
vt 0.500000 0.949164
vt 0.375000 1.000000
vt 0.375000 0.949164
vt 0.250000 1.000000
vt 0.250000 0.949164
vt 0.125000 1.000000
vt 0.125000 0.949164
vt 0.000000 1.000000
vt 0.000000 0.949164
vt 0.750000 0.490000
vt 0.919706 0.419706
vt 0.990000 0.250000
vt 0.919706 0.080294
vt 0.750000 0.010000
vt 0.580294 0.080294
vt 0.510000 0.250000
vt 0.580294 0.419706
vt 0.125000 0.500000
vt 0.000000 0.500000
vt 0.250000 0.500000
vt 0.375000 0.500000
vt 0.500000 0.500000
vt 0.625000 0.500000
vt 0.750000 0.500000
vt 0.875000 0.500000
vt 1.000000 0.500000
vt 1.000000 0.949164
vt 0.875000 1.000000
vt 0.875000 0.949164
vt 0.750000 1.000000
vt 0.750000 0.949164
vt 0.625000 1.000000
vt 0.625000 0.949164
vt 0.500000 1.000000
vt 0.500000 0.949164
vt 0.375000 1.000000
vt 0.375000 0.949164
vt 0.250000 1.000000
vt 0.250000 0.949164
vt 0.125000 1.000000
vt 0.125000 0.949164
vt 0.000000 1.000000
vt 0.000000 0.949164
vt 0.750000 0.490000
vt 0.919706 0.419706
vt 0.990000 0.250000
vt 0.919706 0.080294
vt 0.750000 0.010000
vt 0.580294 0.080294
vt 0.510000 0.250000
vt 0.580294 0.419706
vt 0.125000 0.500000
vt 0.000000 0.500000
vt 0.250000 0.500000
vt 0.375000 0.500000
vt 0.500000 0.500000
vt 0.625000 0.500000
vt 0.750000 0.500000
vt 0.875000 0.500000
vt 1.000000 0.500000
vt 1.000000 0.500000
vt 1.000000 1.000000
vt 0.875000 1.000000
vt 0.875000 0.500000
vt 0.750000 1.000000
vt 0.750000 0.500000
vt 0.625000 1.000000
vt 0.625000 0.500000
vt 0.500000 1.000000
vt 0.500000 0.500000
vt 0.375000 1.000000
vt 0.375000 0.500000
vt 0.250000 1.000000
vt 0.250000 0.500000
vt 0.419706 0.419706
vt 0.250000 0.490000
vt 0.080294 0.419706
vt 0.010000 0.250000
vt 0.080294 0.080294
vt 0.250000 0.010000
vt 0.419706 0.080294
vt 0.490000 0.250000
vt 0.125000 1.000000
vt 0.125000 0.500000
vt 0.000000 1.000000
vt 0.000000 0.500000
vt 0.750000 0.490000
vt 0.919706 0.419706
vt 0.990000 0.250000
vt 0.919706 0.080294
vt 0.750000 0.010000
vt 0.580294 0.080294
vt 0.510000 0.250000
vt 0.580294 0.419706
vt 1.000000 0.500000
vt 1.000000 1.000000
vt 0.875000 1.000000
vt 0.875000 0.500000
vt 0.750000 1.000000
vt 0.750000 0.500000
vt 0.625000 1.000000
vt 0.625000 0.500000
vt 0.500000 1.000000
vt 0.500000 0.500000
vt 0.375000 1.000000
vt 0.375000 0.500000
vt 0.250000 1.000000
vt 0.250000 0.500000
vt 0.419706 0.419706
vt 0.250000 0.490000
vt 0.080294 0.419706
vt 0.010000 0.250000
vt 0.080294 0.080294
vt 0.250000 0.010000
vt 0.419706 0.080294
vt 0.490000 0.250000
vt 0.125000 1.000000
vt 0.125000 0.500000
vt 0.000000 1.000000
vt 0.000000 0.500000
vt 0.750000 0.490000
vt 0.919706 0.419706
vt 0.990000 0.250000
vt 0.919706 0.080294
vt 0.750000 0.010000
vt 0.580294 0.080294
vt 0.510000 0.250000
vt 0.580294 0.419706
vn 0.5242 -0.8480 -0.0776
vn 0.4567 -0.6228 0.6353
vn 0.2286 0.0074 0.9735
vn -0.0264 0.6733 0.7389
vn -0.1589 0.9849 0.0690
vn -0.0913 0.7596 -0.6439
vn 0.1368 0.1295 -0.9821
vn 0.3917 -0.5364 -0.7475
vn -0.9362 -0.3507 0.0221
vn 0.2131 -0.6167 -0.7578
vn -0.0468 0.0623 -0.9970
vn -0.2794 0.7048 -0.6521
vn -0.3483 0.9344 0.0747
vn -0.2132 0.6167 0.7578
vn 0.0468 -0.0623 0.9970
vn 0.2794 -0.7048 0.6521
vn 0.3483 -0.9344 -0.0747
vn 0.3827 -0.9239 -0.0000
vn 0.9239 -0.3827 0.0000
vn 0.9239 0.3827 0.0000
vn 0.3827 0.9239 0.0000
vn -0.3827 0.9239 0.0000
vn -0.9239 0.3827 0.0000
vn 0.0000 0.0000 -1.0000
vn -0.9239 -0.3827 -0.0000
vn -0.3827 -0.9239 -0.0000
vn 0.0000 0.0000 1.0000
vn 0.5280 -0.8464 -0.0689
vn 0.4192 -0.6396 0.6444
vn 0.1718 -0.0180 0.9850
vn -0.0693 0.6540 0.7533
vn -0.1628 0.9830 0.0850
vn -0.0540 0.7761 -0.6283
vn 0.1934 0.1546 -0.9689
vn 0.4345 -0.5175 -0.7371
vn -0.9359 -0.3499 -0.0413
vn 0.2569 -0.5972 -0.7598
vn 0.0111 0.0880 -0.9961
vn -0.2412 0.7217 -0.6488
vn -0.3522 0.9326 0.0785
vn -0.2569 0.5972 0.7598
vn -0.0111 -0.0880 0.9961
vn 0.2412 -0.7217 0.6488
vn 0.3522 -0.9326 -0.0785
vn 0.5251 -0.8477 -0.0758
vn 0.4491 -0.6262 0.6374
vn 0.2171 0.0022 0.9761
vn -0.0350 0.6694 0.7421
vn -0.1596 0.9845 0.0723
vn -0.0836 0.7630 -0.6409
vn 0.1483 0.1346 -0.9797
vn 0.4005 -0.5326 -0.7457
vn -0.9365 -0.3507 0.0092
vn 0.2220 -0.6128 -0.7584
vn -0.0351 0.0675 -0.9971
vn -0.2716 0.7082 -0.6517
vn -0.3490 0.9341 0.0755
vn -0.2220 0.6128 0.7584
vn 0.0351 -0.0675 0.9971
vn 0.2716 -0.7082 0.6517
vn 0.3490 -0.9341 -0.0755
vn 0.5230 -0.8486 -0.0802
vn 0.4682 -0.6176 0.6319
vn 0.2461 0.0152 0.9691
vn -0.0132 0.6792 0.7338
vn -0.1579 0.9854 0.0639
vn -0.1031 0.7544 -0.6482
vn 0.1190 0.1216 -0.9854
vn 0.3783 -0.5424 -0.7501
vn -0.9356 -0.3506 0.0418
vn 0.1996 -0.6228 -0.7565
vn -0.0648 0.0542 -0.9964
vn -0.2912 0.6995 -0.6526
vn -0.3471 0.9350 0.0735
vn -0.1996 0.6228 0.7565
vn 0.0648 -0.0542 0.9964
vn 0.2912 -0.6995 0.6526
vn 0.3471 -0.9350 -0.0735
vn 0.5214 -0.8493 -0.0823
vn 0.4154 -0.6521 0.6342
vn 0.1733 -0.0337 0.9843
vn -0.0630 0.6435 0.7629
vn -0.1552 0.9828 0.0997
vn -0.0491 0.7856 -0.6168
vn 0.1930 0.1673 -0.9668
vn 0.4293 -0.5099 -0.7454
vn -0.9386 -0.3422 -0.0447
vn 0.2510 -0.5880 -0.7689
vn 0.0100 0.1025 -0.9947
vn -0.2368 0.7329 -0.6378
vn -0.3449 0.9340 0.0928
vn -0.2510 0.5880 0.7689
vn -0.0100 -0.1025 0.9947
vn 0.2368 -0.7329 0.6378
vn 0.3449 -0.9340 -0.0928
vn 0.5293 -0.8459 -0.0656
vn 0.4049 -0.6460 0.6472
vn 0.1500 -0.0277 0.9883
vn -0.0858 0.6467 0.7579
vn -0.1646 0.9822 0.0911
vn -0.0401 0.7822 -0.6217
vn 0.2147 0.1640 -0.9628
vn 0.4506 -0.5104 -0.7325
vn -0.9348 -0.3492 -0.0653
vn 0.2735 -0.5899 -0.7598
vn 0.0330 0.0978 -0.9947
vn -0.2268 0.7281 -0.6469
vn -0.3537 0.9319 0.0799
vn -0.2735 0.5898 0.7598
vn -0.0330 -0.0978 0.9947
vn 0.2268 -0.7281 0.6469
vn 0.3537 -0.9319 -0.0799
vn 0.5222 -0.8489 -0.0817
vn 0.4747 -0.6147 0.6299
vn 0.2560 0.0196 0.9665
vn -0.0058 0.6825 0.7308
vn -0.1573 0.9857 0.0610
vn -0.1098 0.7515 -0.6506
vn 0.1089 0.1171 -0.9871
vn 0.3707 -0.5457 -0.7515
vn -0.9351 -0.3505 0.0529
vn 0.1920 -0.6262 -0.7557
vn -0.0750 0.0497 -0.9959
vn -0.2980 0.6965 -0.6528
vn -0.3464 0.9353 0.0728
vn -0.1919 0.6262 0.7557
vn 0.0750 -0.0497 0.9959
vn 0.2980 -0.6965 0.6528
vn 0.3464 -0.9353 -0.0728
vn 0.1368 -0.0057 0.9906
vn 0.7970 -0.0171 0.6037
vn 0.9904 -0.0184 -0.1368
vn 0.6036 -0.0090 -0.7972
vn -0.1368 0.0057 -0.9906
vn -0.7970 0.0171 -0.6037
vn -0.0191 -0.9998 -0.0032
vn -0.9904 0.0184 0.1368
vn -0.6036 0.0090 0.7972
vn 0.0191 0.9998 0.0032
vn 0.1367 -0.0057 0.9906
usemtl None
s off
f 10/1/1 2/2/1 11/3/1
f 11/3/2 2/4/2 12/5/2
f 12/5/3 2/6/3 13/7/3
f 13/7/4 2/8/4 14/9/4
f 14/9/5 2/10/5 15/11/5
f 15/11/6 2/12/6 16/13/6
f 16/13/7 2/14/7 17/15/7
f 17/15/8 2/16/8 10/17/8
f 1/18/9 3/19/9 4/20/9 5/21/9 6/22/9 7/23/9 8/24/9 9/25/9
f 9/26/10 17/15/10 10/17/10 1/27/10
f 8/28/11 16/13/11 17/15/11 9/26/11
f 7/29/12 15/11/12 16/13/12 8/28/12
f 6/30/13 14/9/13 15/11/13 7/29/13
f 5/31/14 13/7/14 14/9/14 6/30/14
f 4/32/15 12/5/15 13/7/15 5/31/15
f 3/33/16 11/3/16 12/5/16 4/32/16
f 1/34/17 10/1/17 11/3/17 3/33/17
f 18/35/18 19/36/18 21/37/18 20/38/18
f 20/38/19 21/37/19 23/39/19 22/40/19
f 22/40/20 23/39/20 25/41/20 24/42/20
f 24/42/21 25/41/21 27/43/21 26/44/21
f 26/44/22 27/43/22 29/45/22 28/46/22
f 28/46/23 29/45/23 31/47/23 30/48/23
f 21/49/24 19/50/24 33/51/24 31/52/24 29/53/24 27/54/24 25/55/24 23/56/24
f 30/48/25 31/47/25 33/57/25 32/58/25
f 32/58/26 33/57/26 19/59/26 18/60/26
f 18/61/27 20/62/27 22/63/27 24/64/27 26/65/27 28/66/27 30/67/27 32/68/27
f 34/69/18 35/70/18 37/71/18 36/72/18
f 36/72/19 37/71/19 39/73/19 38/74/19
f 38/74/20 39/73/20 41/75/20 40/76/20
f 40/76/21 41/75/21 43/77/21 42/78/21
f 42/78/22 43/77/22 45/79/22 44/80/22
f 44/80/23 45/79/23 47/81/23 46/82/23
f 37/83/24 35/84/24 49/85/24 47/86/24 45/87/24 43/88/24 41/89/24 39/90/24
f 46/82/25 47/81/25 49/91/25 48/92/25
f 48/92/26 49/91/26 35/93/26 34/94/26
f 34/95/27 36/96/27 38/97/27 40/98/27 42/99/27 44/100/27 46/101/27 48/102/27
f 59/103/28 51/104/28 60/105/28
f 60/105/29 51/106/29 61/107/29
f 61/107/30 51/108/30 62/109/30
f 62/109/31 51/110/31 63/111/31
f 63/111/32 51/112/32 64/113/32
f 64/113/33 51/114/33 65/115/33
f 65/115/34 51/116/34 66/117/34
f 66/117/35 51/118/35 59/119/35
f 50/120/36 52/121/36 53/122/36 54/123/36 55/124/36 56/125/36 57/126/36 58/127/36
f 58/128/37 66/117/37 59/119/37 50/129/37
f 57/130/38 65/115/38 66/117/38 58/128/38
f 56/131/39 64/113/39 65/115/39 57/130/39
f 55/132/40 63/111/40 64/113/40 56/131/40
f 54/133/41 62/109/41 63/111/41 55/132/41
f 53/134/42 61/107/42 62/109/42 54/133/42
f 52/135/43 60/105/43 61/107/43 53/134/43
f 50/136/44 59/103/44 60/105/44 52/135/44
f 76/137/45 68/138/45 77/139/45
f 77/139/46 68/140/46 78/141/46
f 78/141/47 68/142/47 79/143/47
f 79/143/48 68/144/48 80/145/48
f 80/145/49 68/146/49 81/147/49
f 81/147/50 68/148/50 82/149/50
f 82/149/51 68/150/51 83/151/51
f 83/151/52 68/152/52 76/153/52
f 67/154/53 69/155/53 70/156/53 71/157/53 72/158/53 73/159/53 74/160/53 75/161/53
f 75/162/54 83/151/54 76/153/54 67/163/54
f 74/164/55 82/149/55 83/151/55 75/162/55
f 73/165/56 81/147/56 82/149/56 74/164/56
f 72/166/57 80/145/57 81/147/57 73/165/57
f 71/167/58 79/143/58 80/145/58 72/166/58
f 70/168/59 78/141/59 79/143/59 71/167/59
f 69/169/60 77/139/60 78/141/60 70/168/60
f 67/170/61 76/137/61 77/139/61 69/169/61
f 93/171/62 85/172/62 94/173/62
f 94/173/63 85/174/63 95/175/63
f 95/175/64 85/176/64 96/177/64
f 96/177/65 85/178/65 97/179/65
f 97/179/66 85/180/66 98/181/66
f 98/181/67 85/182/67 99/183/67
f 99/183/68 85/184/68 100/185/68
f 100/185/69 85/186/69 93/187/69
f 84/188/70 86/189/70 87/190/70 88/191/70 89/192/70 90/193/70 91/194/70 92/195/70
f 92/196/71 100/185/71 93/187/71 84/197/71
f 91/198/72 99/183/72 100/185/72 92/196/72
f 90/199/73 98/181/73 99/183/73 91/198/73
f 89/200/74 97/179/74 98/181/74 90/199/74
f 88/201/75 96/177/75 97/179/75 89/200/75
f 87/202/76 95/175/76 96/177/76 88/201/76
f 86/203/77 94/173/77 95/175/77 87/202/77
f 84/204/78 93/171/78 94/173/78 86/203/78
f 110/205/79 102/206/79 111/207/79
f 111/207/80 102/208/80 112/209/80
f 112/209/81 102/210/81 113/211/81
f 113/211/82 102/212/82 114/213/82
f 114/213/83 102/214/83 115/215/83
f 115/215/84 102/216/84 116/217/84
f 116/217/85 102/218/85 117/219/85
f 117/219/86 102/220/86 110/221/86
f 101/222/87 103/223/87 104/224/87 105/225/87 106/226/87 107/227/87 108/228/87 109/229/87
f 109/230/88 117/219/88 110/221/88 101/231/88
f 108/232/89 116/217/89 117/219/89 109/230/89
f 107/233/90 115/215/90 116/217/90 108/232/90
f 106/234/91 114/213/91 115/215/91 107/233/91
f 105/235/92 113/211/92 114/213/92 106/234/92
f 104/236/93 112/209/93 113/211/93 105/235/93
f 103/237/94 111/207/94 112/209/94 104/236/94
f 101/238/95 110/205/95 111/207/95 103/237/95
f 127/239/96 119/240/96 128/241/96
f 128/241/97 119/242/97 129/243/97
f 129/243/98 119/244/98 130/245/98
f 130/245/99 119/246/99 131/247/99
f 131/247/100 119/248/100 132/249/100
f 132/249/101 119/250/101 133/251/101
f 133/251/102 119/252/102 134/253/102
f 134/253/103 119/254/103 127/255/103
f 118/256/104 120/257/104 121/258/104 122/259/104 123/260/104 124/261/104 125/262/104 126/263/104
f 126/264/105 134/253/105 127/255/105 118/265/105
f 125/266/106 133/251/106 134/253/106 126/264/106
f 124/267/107 132/249/107 133/251/107 125/266/107
f 123/268/108 131/247/108 132/249/108 124/267/108
f 122/269/109 130/245/109 131/247/109 123/268/109
f 121/270/110 129/243/110 130/245/110 122/269/110
f 120/271/111 128/241/111 129/243/111 121/270/111
f 118/272/112 127/239/112 128/241/112 120/271/112
f 144/273/113 136/274/113 145/275/113
f 145/275/114 136/276/114 146/277/114
f 146/277/115 136/278/115 147/279/115
f 147/279/116 136/280/116 148/281/116
f 148/281/117 136/282/117 149/283/117
f 149/283/118 136/284/118 150/285/118
f 150/285/119 136/286/119 151/287/119
f 151/287/120 136/288/120 144/289/120
f 135/290/121 137/291/121 138/292/121 139/293/121 140/294/121 141/295/121 142/296/121 143/297/121
f 143/298/122 151/287/122 144/289/122 135/299/122
f 142/300/123 150/285/123 151/287/123 143/298/123
f 141/301/124 149/283/124 150/285/124 142/300/124
f 140/302/125 148/281/125 149/283/125 141/301/125
f 139/303/126 147/279/126 148/281/126 140/302/126
f 138/304/127 146/277/127 147/279/127 139/303/127
f 137/305/128 145/275/128 146/277/128 138/304/128
f 135/306/129 144/273/129 145/275/129 137/305/129
f 152/307/130 153/308/130 155/309/130 154/310/130
f 154/310/131 155/309/131 157/311/131 156/312/131
f 156/312/132 157/311/132 159/313/132 158/314/132
f 158/314/133 159/313/133 161/315/133 160/316/133
f 160/316/134 161/315/134 163/317/134 162/318/134
f 162/318/135 163/317/135 165/319/135 164/320/135
f 155/321/136 153/322/136 167/323/136 165/324/136 163/325/136 161/326/136 159/327/136 157/328/136
f 164/320/137 165/319/137 167/329/137 166/330/137
f 166/330/138 167/329/138 153/331/138 152/332/138
f 152/333/139 154/334/139 156/335/139 158/336/139 160/337/139 162/338/139 164/339/139 166/340/139
f 168/341/140 169/342/140 171/343/140 170/344/140
f 170/344/131 171/343/131 173/345/131 172/346/131
f 172/346/132 173/345/132 175/347/132 174/348/132
f 174/348/133 175/347/133 177/349/133 176/350/133
f 176/350/134 177/349/134 179/351/134 178/352/134
f 178/352/135 179/351/135 181/353/135 180/354/135
f 171/355/136 169/356/136 183/357/136 181/358/136 179/359/136 177/360/136 175/361/136 173/362/136
f 180/354/137 181/353/137 183/363/137 182/364/137
f 182/364/138 183/363/138 169/365/138 168/366/138
f 168/367/139 170/368/139 172/369/139 174/370/139 176/371/139 178/372/139 180/373/139 182/374/139
