# Blender v2.90.0 OBJ File: 'Basic_Building mats.blend'
# www.blender.org
mtllib stairs.mtl
o Cube
v 3.315993 0.431813 3.023168
v 3.315993 0.627780 3.023168
v 3.315993 0.431813 3.520536
v 3.315993 0.627780 3.520536
v 1.726257 0.431813 3.023168
v 1.726257 0.627780 3.023168
v 1.726257 0.431813 3.520536
v 1.726257 0.627780 3.520536
v 3.315993 0.626882 2.809779
v 3.315993 0.822848 2.809779
v 3.315993 0.626882 3.307147
v 3.315993 0.822848 3.307147
v 1.726257 0.626882 2.809779
v 1.726257 0.822848 2.809779
v 1.726257 0.626882 3.307147
v 1.726257 0.822848 3.307147
v 3.315993 0.810973 2.468724
v 3.315993 1.006940 2.468724
v 3.315993 0.810973 2.966092
v 3.315993 1.006940 2.966092
v 1.726257 0.810973 2.468724
v 1.726257 1.006940 2.468724
v 1.726257 0.810973 2.966092
v 1.726257 1.006940 2.966092
v 3.315993 1.006042 2.152839
v 3.315993 1.202008 2.152839
v 3.315993 1.006042 2.650208
v 3.315993 1.202008 2.650208
v 1.726257 1.006042 2.152839
v 1.726257 1.202008 2.152839
v 1.726257 1.006042 2.650208
v 1.726257 1.202008 2.650208
v 3.315993 1.183285 1.833183
v 3.315993 1.379252 1.833183
v 3.315993 1.183285 2.330552
v 3.315993 1.379252 2.330552
v 1.726257 1.183285 1.833183
v 1.726257 1.379252 1.833183
v 1.726257 1.183285 2.330552
v 1.726257 1.379252 2.330552
v 3.315993 1.378354 1.539084
v 3.315993 1.574320 1.539084
v 3.315993 1.378354 2.036452
v 3.315993 1.574320 2.036452
v 1.726257 1.378354 1.539084
v 1.726257 1.574320 1.539084
v 1.726257 1.378354 2.036452
v 1.726257 1.574320 2.036452
vt 0.625000 0.500000
vt 0.625000 0.750000
vt 0.875000 0.750000
vt 0.875000 0.500000
vt 0.375000 0.750000
vt 0.375000 1.000000
vt 0.625000 1.000000
vt 0.375000 0.000000
vt 0.375000 0.250000
vt 0.625000 0.250000
vt 0.625000 0.000000
vt 0.125000 0.500000
vt 0.125000 0.750000
vt 0.375000 0.500000
vt 0.625000 0.500000
vt 0.625000 0.750000
vt 0.875000 0.750000
vt 0.875000 0.500000
vt 0.375000 0.750000
vt 0.375000 1.000000
vt 0.625000 1.000000
vt 0.375000 0.000000
vt 0.375000 0.250000
vt 0.625000 0.250000
vt 0.625000 0.000000
vt 0.125000 0.500000
vt 0.125000 0.750000
vt 0.375000 0.500000
vt 0.625000 0.500000
vt 0.625000 0.750000
vt 0.875000 0.750000
vt 0.875000 0.500000
vt 0.375000 0.750000
vt 0.375000 1.000000
vt 0.625000 1.000000
vt 0.375000 0.000000
vt 0.375000 0.250000
vt 0.625000 0.250000
vt 0.625000 0.000000
vt 0.125000 0.500000
vt 0.125000 0.750000
vt 0.375000 0.500000
vt 0.625000 0.500000
vt 0.625000 0.750000
vt 0.875000 0.750000
vt 0.875000 0.500000
vt 0.375000 0.750000
vt 0.375000 1.000000
vt 0.625000 1.000000
vt 0.375000 0.000000
vt 0.375000 0.250000
vt 0.625000 0.250000
vt 0.625000 0.000000
vt 0.125000 0.500000
vt 0.125000 0.750000
vt 0.375000 0.500000
vt 0.625000 0.500000
vt 0.625000 0.750000
vt 0.875000 0.750000
vt 0.875000 0.500000
vt 0.375000 0.750000
vt 0.375000 1.000000
vt 0.625000 1.000000
vt 0.375000 0.000000
vt 0.375000 0.250000
vt 0.625000 0.250000
vt 0.625000 0.000000
vt 0.125000 0.500000
vt 0.125000 0.750000
vt 0.375000 0.500000
vt 0.625000 0.500000
vt 0.625000 0.750000
vt 0.875000 0.750000
vt 0.875000 0.500000
vt 0.375000 0.750000
vt 0.375000 1.000000
vt 0.625000 1.000000
vt 0.375000 0.000000
vt 0.375000 0.250000
vt 0.625000 0.250000
vt 0.625000 0.000000
vt 0.125000 0.500000
vt 0.125000 0.750000
vt 0.375000 0.500000
vn 0.0000 -1.0000 0.0000
vn 0.0000 0.0000 1.0000
vn -1.0000 0.0000 0.0000
vn 0.0000 1.0000 0.0000
vn 1.0000 0.0000 0.0000
vn 0.0000 0.0000 -1.0000
usemtl Material
s off
f 1/1/1 3/2/1 7/3/1 5/4/1
f 4/5/2 8/6/2 7/7/2 3/2/2
f 8/8/3 6/9/3 5/10/3 7/11/3
f 6/12/4 8/13/4 4/5/4 2/14/4
f 2/14/5 4/5/5 3/2/5 1/1/5
f 6/9/6 2/14/6 1/1/6 5/10/6
f 9/15/1 11/16/1 15/17/1 13/18/1
f 12/19/2 16/20/2 15/21/2 11/16/2
f 16/22/3 14/23/3 13/24/3 15/25/3
f 14/26/4 16/27/4 12/19/4 10/28/4
f 10/28/5 12/19/5 11/16/5 9/15/5
f 14/23/6 10/28/6 9/15/6 13/24/6
f 17/29/1 19/30/1 23/31/1 21/32/1
f 20/33/2 24/34/2 23/35/2 19/30/2
f 24/36/3 22/37/3 21/38/3 23/39/3
f 22/40/4 24/41/4 20/33/4 18/42/4
f 18/42/5 20/33/5 19/30/5 17/29/5
f 22/37/6 18/42/6 17/29/6 21/38/6
f 25/43/1 27/44/1 31/45/1 29/46/1
f 28/47/2 32/48/2 31/49/2 27/44/2
f 32/50/3 30/51/3 29/52/3 31/53/3
f 30/54/4 32/55/4 28/47/4 26/56/4
f 26/56/5 28/47/5 27/44/5 25/43/5
f 30/51/6 26/56/6 25/43/6 29/52/6
f 33/57/1 35/58/1 39/59/1 37/60/1
f 36/61/2 40/62/2 39/63/2 35/58/2
f 40/64/3 38/65/3 37/66/3 39/67/3
f 38/68/4 40/69/4 36/61/4 34/70/4
f 34/70/5 36/61/5 35/58/5 33/57/5
f 38/65/6 34/70/6 33/57/6 37/66/6
f 41/71/1 43/72/1 47/73/1 45/74/1
f 44/75/2 48/76/2 47/77/2 43/72/2
f 48/78/3 46/79/3 45/80/3 47/81/3
f 46/82/4 48/83/4 44/75/4 42/84/4
f 42/84/5 44/75/5 43/72/5 41/71/5
f 46/79/6 42/84/6 41/71/6 45/80/6
