# Blender v2.90.0 OBJ File: 'bridge.blend'
# www.blender.org
mtllib swingstick.mtl
o swingStick_Cube.014
v -1.258629 -0.035545 0.061720
v -1.258629 0.101356 0.061720
v -1.258629 -0.035545 -0.055201
v -1.258629 0.101356 -0.055201
v 1.798676 -0.079570 0.099319
v 1.798676 0.145381 0.099319
v 1.798676 -0.079570 -0.092800
v 1.798676 0.145381 -0.092800
v -0.495785 -0.181928 -0.099726
v -0.495785 0.043023 -0.099726
v -0.495785 -0.181928 0.092394
v -0.495785 0.043023 0.092394
v -1.253857 0.040146 0.089853
v -1.253857 0.040146 -0.097660
v 1.605911 0.029219 -0.149405
v 1.605911 0.029219 0.158710
v -0.440620 -0.062078 0.147604
v -0.440620 -0.062078 -0.160513
vt 0.500000 0.000000
vt 0.625000 0.000000
vt 0.625000 0.250000
vt 0.500000 0.250000
vt 0.500000 0.315471
vt 0.625000 0.315471
vt 0.625000 0.500000
vt 0.500000 0.500000
vt 0.625000 0.750000
vt 0.500000 0.750000
vt 0.500000 0.934529
vt 0.625000 0.934529
vt 0.625000 1.000000
vt 0.500000 1.000000
vt 0.190471 0.500000
vt 0.375000 0.500000
vt 0.375000 0.750000
vt 0.190471 0.750000
vt 0.809529 0.500000
vt 0.875000 0.500000
vt 0.875000 0.750000
vt 0.809529 0.750000
vt 0.125000 0.500000
vt 0.125000 0.750000
vt 0.375000 0.250000
vt 0.375000 0.315471
vt 0.375000 0.934529
vt 0.375000 1.000000
vt 0.375000 0.000000
vn -0.9970 -0.0777 0.0000
vn -0.0176 0.4771 -0.8787
vn 0.5161 -0.8565 0.0000
vn -0.0047 0.4467 0.8947
vn 0.0446 -0.9990 0.0000
vn 0.0762 0.9971 0.0000
vn -0.0446 0.9990 0.0000
vn -0.1885 -0.9821 0.0000
vn -0.0247 0.4718 0.8813
vn -0.0043 0.5263 -0.8503
vn -0.1289 -0.4318 -0.8927
vn 0.0159 -0.4404 0.8977
vn -0.1089 -0.3613 0.9261
vn 0.4915 0.8709 0.0000
vn 0.0236 -0.4454 -0.8950
vn -0.9980 0.0629 0.0000
usemtl None
s off
f 13/1/1 2/2/1 4/3/1 14/4/1
f 18/5/2 10/6/2 8/7/2 15/8/2
f 15/8/3 8/7/3 6/9/3 16/10/3
f 17/11/4 12/12/4 2/13/4 13/14/4
f 9/15/5 7/16/5 5/17/5 11/18/5
f 10/19/6 4/20/6 2/21/6 12/22/6
f 8/7/7 10/19/7 12/22/7 6/9/7
f 3/23/8 9/15/8 11/18/8 1/24/8
f 16/10/9 6/9/9 12/12/9 17/11/9
f 14/4/10 4/3/10 10/6/10 18/5/10
f 3/25/11 14/4/11 18/5/11 9/26/11
f 5/17/12 16/10/12 17/11/12 11/27/12
f 11/27/13 17/11/13 13/14/13 1/28/13
f 7/16/14 15/8/14 16/10/14 5/17/14
f 9/26/15 18/5/15 15/8/15 7/16/15
f 1/29/16 13/1/16 14/4/16 3/25/16
