# Blender v2.90.0 OBJ File: 'Basic_Building mats.blend'
# www.blender.org
mtllib wall.mtl
o Cube.019_Cube.020
v 9.767923 -0.390536 6.562140
v 9.767923 2.936128 6.562140
v 9.767923 -0.390536 3.235476
v 9.767923 2.936128 3.235476
v 10.087826 -0.390536 6.562140
v 10.087826 2.936128 6.562140
v 10.087826 -0.390536 3.235476
v 10.087826 2.936128 3.235476
v 9.767923 -0.390536 4.898808
v 9.767923 1.272796 6.562140
v 9.767923 2.936128 4.898808
v 9.767923 1.272796 3.235476
v 9.927875 -0.390536 3.235476
v 9.927875 2.936128 3.235476
v 10.087826 1.272796 3.235476
v 10.087826 -0.390536 4.898808
v 10.087826 2.936128 4.898808
v 10.087826 1.272796 6.562140
v 9.927875 -0.390536 6.562140
v 9.927875 2.936128 6.562140
v 9.927875 2.936128 4.898808
v 9.927875 -0.390536 4.898808
v 9.927875 1.272796 6.562140
v 10.087826 1.272796 4.898808
v 9.927875 1.272796 3.235476
v 9.781544 1.284314 4.914408
v 9.767923 -0.390536 5.730474
v 9.767923 2.104462 6.562140
v 9.767923 2.936128 4.067142
v 9.767923 0.441130 3.235476
v 9.847898 -0.390536 3.235476
v 10.007851 2.936128 3.235476
v 10.087826 0.441130 3.235476
v 10.087826 -0.390536 4.067142
v 10.087826 2.936128 5.730474
v 10.087826 0.441130 6.562140
v 10.007851 -0.390536 6.562140
v 9.847898 2.936128 6.562140
v 9.767923 -0.390536 4.067142
v 9.767923 0.441130 6.562140
v 9.767923 2.936128 5.730474
v 9.767923 2.104462 3.235476
v 10.007851 -0.390536 3.235476
v 9.847898 2.936128 3.235476
v 10.087826 2.104462 3.235476
v 10.087826 -0.390536 5.730474
v 10.087826 2.936128 4.067142
v 10.087826 2.104462 6.562140
v 9.847898 -0.390536 6.562140
v 10.007851 2.936128 6.562140
v 9.927875 2.936128 5.730474
v 9.927875 2.936128 4.067142
v 10.007851 2.936128 4.898808
v 9.847898 2.936128 4.898808
v 9.927875 -0.390536 5.730474
v 9.927875 -0.390536 4.067142
v 9.847898 -0.390536 4.898808
v 10.007851 -0.390536 4.898808
v 9.847898 1.272796 6.562140
v 10.007851 1.272796 6.562140
v 9.927875 0.441130 6.562140
v 9.927875 2.104462 6.562140
v 10.087826 1.272796 5.730474
v 10.087826 1.272796 4.067142
v 10.087826 0.441130 4.898808
v 10.087826 2.104462 4.898808
v 10.007851 1.272796 3.235476
v 9.847898 1.272796 3.235476
v 9.927875 0.441130 3.235476
v 9.927875 2.104462 3.235476
v 9.767923 1.272796 4.067142
v 9.767923 1.272796 5.730474
v 9.768291 0.437978 4.896275
v 9.767908 2.100006 4.908516
v 9.769808 2.112181 5.730087
v 9.746046 0.498648 5.687122
v 9.767923 0.441130 4.067142
v 9.847898 2.104462 3.235476
v 9.847898 0.441130 3.235476
v 10.007851 0.441130 3.235476
v 10.087826 2.104462 4.067142
v 10.087826 0.441130 4.067142
v 10.087826 0.441132 5.730472
v 10.007851 2.104462 6.562140
v 10.007851 0.441130 6.562140
v 9.847898 0.441130 6.562140
v 10.007851 -0.390536 4.067142
v 9.847898 -0.390536 4.067142
v 9.847898 -0.390536 5.730474
v 9.847898 2.936128 4.067142
v 10.007851 2.936128 4.067142
v 10.007851 2.936128 5.730474
v 9.847898 2.936128 5.730474
v 10.007851 -0.390536 5.730474
v 9.847898 2.104462 6.562140
v 10.087826 2.104462 5.730474
v 10.007851 2.104462 3.235476
v 9.767923 2.104462 4.067142
v 9.669561 -0.373203 5.747807
v 9.669561 -0.373203 6.544807
v 9.669561 0.423797 6.544807
v 9.647367 0.482150 5.703826
v 9.605276 1.267209 5.724887
v 9.619856 1.202768 4.916603
v 9.606467 0.436534 4.896211
v 9.586522 0.496025 5.687723
v 9.592105 -0.368932 4.088746
v 9.592105 -0.368932 4.877204
v 9.592773 0.413808 4.872609
v 9.592105 0.419526 4.088746
v 9.550118 1.283269 6.551667
v 9.550118 2.093989 6.551667
v 9.550118 1.283269 5.740947
v 9.550186 2.094266 5.740933
v 9.655614 2.911961 4.874641
v 9.655614 2.911961 4.091309
v 9.656247 2.131222 4.874511
v 9.655614 2.128628 4.091309
v 9.712308 2.095985 4.884827
v 9.722669 1.235062 4.894837
v 9.711028 1.286515 4.080861
v 9.688739 2.036663 4.171261
v 9.742260 2.904987 5.699333
v 9.742260 2.904987 4.929949
v 9.745140 2.147393 4.929358
v 9.745140 2.147393 5.698741
v 9.645347 2.157628 6.522386
v 9.645347 2.909385 6.522386
v 9.645347 2.909385 5.770629
v 9.645347 2.157628 5.770629
v 9.608040 1.384623 5.671087
v 9.629773 1.409789 4.925750
v 9.617328 2.051843 4.925819
v 9.603311 2.054393 5.680480
v 9.732742 1.207382 4.892163
v 9.721563 1.256791 4.083147
v 9.722007 0.453344 4.879756
v 9.721563 0.457135 4.083147
v 9.685514 1.249022 4.043368
v 9.685514 1.249022 3.259250
v 9.685514 0.464904 3.259250
v 9.701948 0.498548 3.958809
v 9.688357 0.404414 3.272192
v 9.688357 -0.353820 3.272192
v 9.688357 -0.353820 4.030426
v 9.688357 0.404414 4.030426
v 9.672429 2.084463 3.255475
v 9.672429 1.292795 3.255475
v 9.672429 1.292795 4.047143
v 9.650139 2.030383 4.137544
v 9.695182 2.914190 4.045204
v 9.695182 2.914190 3.257414
v 9.695182 2.126400 3.257414
v 9.695182 2.126400 4.045204
v 9.711805 0.463760 6.539510
v 9.711805 1.250166 6.539510
v 9.711805 1.250166 5.753104
v 9.688094 0.526102 5.706117
v 9.692919 0.385655 4.930413
v 9.691372 -0.348294 4.941050
v 9.691372 -0.348294 5.688232
v 9.671317 0.451616 5.648492
v 9.541657 1.679432 6.279377
v 9.541657 1.962844 6.279377
v 9.541657 1.679432 5.995965
v 9.541657 1.962844 5.995965
v 9.541657 1.709622 6.249187
v 9.541657 1.932654 6.249187
v 9.541657 1.709622 6.026155
v 9.541657 1.932654 6.026155
v 9.579151 1.679432 6.279377
v 9.579151 1.962844 6.279377
v 9.579151 1.679432 5.995965
v 9.579151 1.962844 5.995965
v 9.579151 1.709622 6.249187
v 9.579151 1.932654 6.249187
v 9.579151 1.709622 6.026155
v 9.579151 1.932654 6.026155
vt 0.562500 0.250000
vt 0.562500 0.187500
vt 0.562500 0.187500
vt 0.562500 0.250000
vt 0.562500 0.437500
vt 0.625000 0.437500
vt 0.625000 0.500000
vt 0.562500 0.500000
vt 0.562500 0.687500
vt 0.625000 0.687500
vt 0.625000 0.750000
vt 0.562500 0.750000
vt 0.562500 0.937500
vt 0.625000 0.937500
vt 0.625000 1.000000
vt 0.562500 1.000000
vt 0.312500 0.687500
vt 0.375000 0.687500
vt 0.375000 0.750000
vt 0.312500 0.750000
vt 0.812500 0.687500
vt 0.875000 0.687500
vt 0.875000 0.750000
vt 0.812500 0.750000
vt 0.687500 0.687500
vt 0.750000 0.687500
vt 0.750000 0.750000
vt 0.687500 0.750000
vt 0.687500 0.562500
vt 0.750000 0.562500
vt 0.750000 0.625000
vt 0.687500 0.625000
vt 0.812500 0.562500
vt 0.875000 0.562500
vt 0.875000 0.625000
vt 0.812500 0.625000
vt 0.187500 0.687500
vt 0.250000 0.687500
vt 0.250000 0.750000
vt 0.187500 0.750000
vt 0.187500 0.562500
vt 0.250000 0.562500
vt 0.250000 0.625000
vt 0.187500 0.625000
vt 0.312500 0.562500
vt 0.375000 0.562500
vt 0.375000 0.625000
vt 0.312500 0.625000
vt 0.437500 0.937500
vt 0.500000 0.937500
vt 0.500000 1.000000
vt 0.437500 1.000000
vt 0.437500 0.812500
vt 0.500000 0.812500
vt 0.500000 0.875000
vt 0.437500 0.875000
vt 0.562500 0.812500
vt 0.625000 0.812500
vt 0.625000 0.875000
vt 0.562500 0.875000
vt 0.437500 0.687500
vt 0.500000 0.687500
vt 0.500000 0.750000
vt 0.437500 0.750000
vt 0.437500 0.562500
vt 0.500000 0.562500
vt 0.500000 0.625000
vt 0.437500 0.625000
vt 0.562500 0.562500
vt 0.625000 0.562500
vt 0.625000 0.625000
vt 0.562500 0.625000
vt 0.437500 0.437500
vt 0.500000 0.437500
vt 0.500000 0.500000
vt 0.437500 0.500000
vt 0.437500 0.312500
vt 0.500000 0.312500
vt 0.500000 0.375000
vt 0.437500 0.375000
vt 0.562500 0.312500
vt 0.625000 0.312500
vt 0.625000 0.375000
vt 0.562500 0.375000
vt 0.500000 0.250000
vt 0.437500 0.250000
vt 0.437500 0.250000
vt 0.500000 0.250000
vt 0.625000 0.125000
vt 0.562500 0.125000
vt 0.562500 0.125000
vt 0.625000 0.125000
vt 0.500000 0.125000
vt 0.500000 0.125000
vt 0.562500 0.125000
vt 0.562500 1.000000
vt 0.500000 1.000000
vt 0.875000 0.687500
vt 0.875000 0.750000
vt 0.375000 0.062500
vt 0.437500 0.062500
vt 0.437500 0.062500
vt 0.375000 0.062500
vt 0.375000 0.062500
vt 0.437500 0.062500
vt 0.500000 0.000000
vt 0.500000 0.062500
vt 0.500000 0.062500
vt 0.500000 0.000000
vt 0.375000 0.187500
vt 0.437500 0.187500
vt 0.437500 0.187500
vt 0.375000 0.187500
vt 0.375000 0.187500
vt 0.437500 0.187500
vt 0.500000 0.187500
vt 0.437500 0.187500
vt 0.500000 0.187500
vt 0.625000 0.250000
vt 0.375000 0.312500
vt 0.375000 0.375000
vt 0.375000 0.250000
vt 0.375000 0.437500
vt 0.375000 0.500000
vt 0.375000 0.812500
vt 0.375000 0.875000
vt 0.375000 0.937500
vt 0.375000 1.000000
vt 0.250000 0.500000
vt 0.312500 0.500000
vt 0.125000 0.562500
vt 0.125000 0.625000
vt 0.125000 0.500000
vt 0.187500 0.500000
vt 0.125000 0.687500
vt 0.125000 0.750000
vt 0.750000 0.500000
vt 0.812500 0.500000
vt 0.875000 0.500000
vt 0.687500 0.500000
vt 0.562500 0.187500
vt 0.500000 0.187500
vt 0.562500 0.125000
vt 0.500000 0.125000
vt 0.625000 0.125000
vt 0.562500 0.125000
vt 0.375000 0.000000
vt 0.437500 0.000000
vt 0.437500 1.000000
vt 0.375000 1.000000
vt 0.437500 0.000000
vt 0.125000 0.750000
vt 0.125000 0.687500
vt 0.437500 0.125000
vt 0.437500 0.125000
vt 0.500000 0.125000
vt 0.500000 0.062500
vt 0.437500 0.062500
vt 0.375000 0.125000
vt 0.437500 0.125000
vt 0.125000 0.625000
vt 0.125000 0.562500
vt 0.375000 0.125000
vt 0.562500 1.000000
vt 0.500000 1.000000
vt 0.500000 0.000000
vt 0.500000 0.062500
vt 0.562500 0.062500
vt 0.562500 0.062500
vt 0.562500 0.000000
vt 0.562500 0.000000
vt 0.625000 0.187500
vt 0.562500 0.187500
vt 0.875000 0.562500
vt 0.875000 0.625000
vt 0.625000 0.187500
vt 0.562500 0.187500
vt 0.500000 0.187500
vt 0.625000 0.062500
vt 0.625000 0.062500
vt 0.562500 0.062500
vt 0.562500 0.000000
vt 0.625000 0.000000
vt 0.625000 0.062500
vt 0.562500 0.062500
vt 0.625000 1.000000
vt 0.562500 1.000000
vt 0.562500 0.062500
vt 0.500000 0.062500
vt 0.437500 0.125000
vt 0.500000 0.125000
vt 0.437500 0.187500
vt 0.500000 0.187500
vt 0.437500 0.250000
vt 0.375000 0.250000
vt 0.125000 0.562500
vt 0.125000 0.500000
vt 0.562500 0.250000
vt 0.500000 0.250000
vt 0.625000 0.187500
vt 0.625000 0.250000
vt 0.875000 0.500000
vt 0.875000 0.562500
vt 0.437500 0.000000
vt 0.437500 0.062500
vt 0.500000 1.000000
vt 0.437500 1.000000
vt 0.375000 0.125000
vt 0.437500 0.125000
vt 0.500000 0.000000
vt 0.500000 0.062500
vt 0.500000 0.062500
vt 0.500000 0.000000
vt 0.500000 0.062500
vt 0.562500 0.062500
vt 0.500000 0.000000
vt 0.562500 0.000000
vt 0.562500 0.000000
vt 0.562500 0.062500
vt 0.562500 1.000000
vt 0.500000 1.000000
vt 0.562500 0.062500
vt 0.562500 0.062500
vt 0.562500 0.000000
vt 0.562500 0.000000
vt 0.562500 1.000000
vt 0.500000 1.000000
vt 0.500000 0.062500
vt 0.500000 0.000000
vt 0.125000 0.687500
vt 0.125000 0.625000
vt 0.875000 0.625000
vt 0.875000 0.687500
vn -0.2887 -0.9574 0.0000
vn 0.0000 0.0000 -1.0000
vn 1.0000 0.0000 0.0000
vn 0.0000 0.0000 1.0000
vn 0.0000 -1.0000 0.0000
vn 0.0000 1.0000 0.0000
vn -0.2772 0.0000 -0.9608
vn -0.7325 -0.0052 -0.6808
vn -0.0958 -0.0057 -0.9954
vn -0.0480 0.0000 0.9988
vn -0.2132 0.9770 0.0000
vn -0.4720 0.0316 0.8810
vn -0.1702 -0.0536 -0.9840
vn -0.3740 0.9274 0.0000
vn -0.4190 0.0000 0.9080
vn -0.1220 0.0000 -0.9925
vn -0.3263 0.0000 -0.9453
vn 0.2422 -0.0524 0.9688
vn -0.3550 0.0038 0.9348
vn -0.2512 0.0056 0.9679
vn -0.9998 -0.0131 0.0131
vn -0.1735 0.0000 0.9848
vn -0.1690 0.9831 0.0707
vn -0.1735 -0.9848 0.0000
vn -0.0128 0.0241 -0.9996
vn -0.0141 -0.0517 0.9986
vn -1.0000 0.0004 0.0004
vn -0.1220 -0.9925 0.0000
vn -0.1292 0.9916 0.0055
vn -0.1278 0.0045 0.9918
vn -0.9995 0.0000 0.0311
vn -0.0480 -0.9988 0.0000
vn -0.0487 -0.0002 -0.9988
vn -0.0648 0.9979 0.0048
vn -1.0000 -0.0004 0.0004
vn -0.2104 0.9776 0.0000
vn -0.2104 0.0000 -0.9776
vn -0.2400 -0.9708 -0.0010
vn -0.9995 -0.0214 0.0231
vn -0.6618 0.0335 -0.7489
vn 0.2946 -0.9552 -0.0274
vn -0.4811 0.8764 -0.0236
vn -0.7789 -0.0027 0.6272
vn -1.0000 0.0000 0.0000
vn -0.3085 0.0000 0.9512
vn -0.3105 -0.0001 -0.9506
vn -0.3707 -0.9287 -0.0050
vn -0.3177 -0.0063 0.9482
vn -0.9999 0.0068 0.0075
vn -0.3707 -0.0122 0.9287
vn -0.3207 -0.9472 -0.0039
vn -0.6993 0.7143 0.0268
vn -0.9999 -0.0113 0.0113
vn -0.4905 -0.8711 0.0244
vn -0.6701 -0.0466 0.7408
vn -0.2772 0.9608 0.0000
vn -0.4190 -0.9080 0.0000
vn -0.4190 0.9080 0.0000
vn -0.4190 0.0000 -0.9080
vn -0.9998 -0.0138 -0.0138
vn -0.3950 0.9184 0.0238
vn -0.2050 0.0000 -0.9788
vn -0.2050 -0.9788 0.0000
vn -0.2887 0.0000 -0.9574
vn -0.2887 0.0000 0.9574
vn -0.2887 0.9574 0.0000
vn -0.9998 0.0152 0.0152
vn -0.3395 0.0669 -0.9382
vn -0.3740 0.0000 0.9274
vn -0.4000 -0.9149 -0.0535
vn -0.4488 -0.0070 -0.8936
vn -0.9994 0.0001 -0.0333
vn -0.9998 -0.0214 0.0000
vn -0.9979 0.0646 -0.0000
vn -0.4831 -0.8755 0.0000
vn -0.5481 0.8320 -0.0857
vn -0.9998 -0.0125 -0.0142
vn -0.3159 0.9487 -0.0113
vn -0.6023 -0.7976 -0.0324
vn -0.9996 -0.0129 -0.0240
vn -0.8674 -0.4975 0.0048
vn -0.7717 0.6360 0.0000
vn -1.0000 -0.0038 0.0000
vn 0.0127 -0.9970 0.0761
vn -0.9995 0.0218 -0.0233
vn -0.2589 0.9652 -0.0359
usemtl None
s off
f 42/1/1 98/2/1 154/3/1 153/4/1
f 97/5/2 32/6/2 8/7/2 45/8/2
f 96/9/3 35/10/3 6/11/3 48/12/3
f 95/13/4 38/14/4 2/15/4 28/16/4
f 94/17/5 46/18/5 5/19/5 37/20/5
f 93/21/6 41/22/6 2/23/6 38/24/6
f 92/25/6 51/26/6 20/27/6 50/28/6
f 91/29/6 52/30/6 21/31/6 53/32/6
f 90/33/6 29/34/6 11/35/6 54/36/6
f 89/37/5 55/38/5 19/39/5 49/40/5
f 88/41/5 56/42/5 22/43/5 57/44/5
f 87/45/5 34/46/5 16/47/5 58/48/5
f 86/49/4 59/50/4 10/51/4 40/52/4
f 85/53/4 60/54/4 23/55/4 61/56/4
f 84/57/4 50/58/4 20/59/4 62/60/4
f 83/61/3 63/62/3 18/63/3 36/64/3
f 82/65/3 64/66/3 24/67/3 65/68/3
f 81/69/3 47/70/3 17/71/3 66/72/3
f 80/73/2 67/74/2 15/75/2 33/76/2
f 79/77/2 68/78/2 25/79/2 69/80/2
f 78/81/2 44/82/2 14/83/2 70/84/2
f 12/85/7 30/86/7 141/87/7 140/88/7
f 11/89/8 74/90/8 125/91/8 124/92/8
f 74/90/9 26/93/9 132/94/9 133/95/9
f 10/51/10 28/16/10 112/96/10 111/97/10
f 2/23/11 41/22/11 129/98/11 128/99/11
f 27/100/12 76/101/12 162/102/12 161/103/12
f 76/101/13 27/100/13 99/104/13 102/105/13
f 10/106/14 72/107/14 157/108/14 156/109/14
f 39/110/15 77/111/15 146/112/15 145/113/15
f 77/111/16 39/110/16 107/114/16 110/115/16
f 71/116/17 77/111/17 138/117/17 136/118/17
f 68/78/2 78/81/2 70/84/2 25/79/2
f 12/85/2 42/1/2 78/81/2 68/78/2
f 42/1/2 4/119/2 44/82/2 78/81/2
f 31/120/2 79/77/2 69/80/2 13/121/2
f 3/122/2 30/86/2 79/77/2 31/120/2
f 30/86/2 12/85/2 68/78/2 79/77/2
f 43/123/2 80/73/2 33/76/2 7/124/2
f 13/121/2 69/80/2 80/73/2 43/123/2
f 69/80/2 25/79/2 67/74/2 80/73/2
f 64/66/3 81/69/3 66/72/3 24/67/3
f 15/75/3 45/8/3 81/69/3 64/66/3
f 45/8/3 8/7/3 47/70/3 81/69/3
f 34/46/3 82/65/3 65/68/3 16/47/3
f 7/124/3 33/76/3 82/65/3 34/46/3
f 33/76/3 15/75/3 64/66/3 82/65/3
f 46/18/3 83/61/3 36/64/3 5/19/3
f 60/54/4 84/57/4 62/60/4 23/55/4
f 18/63/4 48/12/4 84/57/4 60/54/4
f 48/12/4 6/11/4 50/58/4 84/57/4
f 37/125/4 85/53/4 61/56/4 19/126/4
f 5/19/4 36/64/4 85/53/4 37/125/4
f 36/64/4 18/63/4 60/54/4 85/53/4
f 49/127/4 86/49/4 40/52/4 1/128/4
f 19/126/4 61/56/4 86/49/4 49/127/4
f 61/56/4 23/55/4 59/50/4 86/49/4
f 56/42/5 87/45/5 58/48/5 22/43/5
f 13/129/5 43/130/5 87/45/5 56/42/5
f 43/130/5 7/124/5 34/46/5 87/45/5
f 39/131/5 88/41/5 57/44/5 9/132/5
f 3/133/5 31/134/5 88/41/5 39/131/5
f 31/134/5 13/129/5 56/42/5 88/41/5
f 27/135/5 89/37/5 49/40/5 1/136/5
f 52/30/6 90/33/6 54/36/6 21/31/6
f 14/137/6 44/138/6 90/33/6 52/30/6
f 44/138/6 4/139/6 29/34/6 90/33/6
f 47/70/6 91/29/6 53/32/6 17/71/6
f 8/7/6 32/140/6 91/29/6 47/70/6
f 32/140/6 14/137/6 52/30/6 91/29/6
f 35/10/6 92/25/6 50/28/6 6/11/6
f 51/26/6 93/21/6 38/24/6 20/27/6
f 55/38/5 94/17/5 37/20/5 19/39/5
f 59/50/4 95/13/4 28/16/4 10/51/4
f 23/55/4 62/60/4 95/13/4 59/50/4
f 62/60/4 20/59/4 38/14/4 95/13/4
f 63/62/3 96/9/3 48/12/3 18/63/3
f 67/74/2 97/5/2 45/8/2 15/75/2
f 25/79/2 70/84/2 97/5/2 67/74/2
f 70/84/2 14/83/2 32/6/2 97/5/2
f 71/116/18 98/2/18 150/141/18 149/142/18
f 26/93/19 74/90/19 119/143/19 120/144/19
f 74/90/20 11/89/20 115/145/20 117/146/20
f 100/147/21 101/148/21 102/105/21 99/104/21
f 1/128/22 40/52/22 101/149/22 100/150/22
f 40/151/23 76/101/23 102/105/23 101/148/23
f 27/135/24 1/136/24 100/152/24 99/153/24
f 26/93/25 73/154/25 105/155/25 104/156/25
f 76/101/26 72/107/26 103/157/26 106/158/26
f 108/159/27 109/160/27 110/115/27 107/114/27
f 39/131/28 9/132/28 108/161/28 107/162/28
f 73/154/29 77/111/29 110/115/29 109/160/29
f 9/163/30 73/154/30 109/160/30 108/159/30
f 111/97/31 112/96/31 164/164/31 163/165/31
f 72/107/32 10/106/32 111/166/32 113/167/32
f 75/168/33 72/107/33 113/167/33 114/169/33
f 28/170/34 75/168/34 114/169/34 112/171/34
f 117/146/35 115/145/35 116/172/35 118/173/35
f 11/35/36 29/34/36 116/174/36 115/175/36
f 29/176/37 98/2/37 118/173/37 116/172/37
f 98/2/38 74/90/38 117/146/38 118/173/38
f 120/144/39 119/143/39 122/177/39 121/178/39
f 98/2/40 71/116/40 121/178/40 122/177/40
f 71/116/41 26/93/41 120/144/41 121/178/41
f 74/90/42 98/2/42 122/177/42 119/143/42
f 75/168/43 41/179/43 123/180/43 126/181/43
f 127/182/44 128/183/44 129/184/44 130/185/44
f 28/16/45 2/15/45 128/186/45 127/187/45
f 41/179/46 75/168/46 130/185/46 129/184/46
f 75/168/47 28/170/47 127/182/47 130/185/47
f 72/107/48 75/168/48 134/188/48 131/189/48
f 137/190/49 135/191/49 136/118/49 138/117/49
f 73/154/50 26/93/50 135/191/50 137/190/50
f 77/111/51 73/154/51 137/190/51 138/117/51
f 26/93/52 71/116/52 136/118/52 135/191/52
f 142/192/53 139/193/53 140/88/53 141/87/53
f 30/86/54 77/111/54 142/192/54 141/87/54
f 77/111/55 71/116/55 139/193/55 142/192/55
f 71/116/56 12/85/56 140/88/56 139/193/56
f 145/113/44 146/112/44 143/194/44 144/195/44
f 3/133/57 39/131/57 145/196/57 144/197/57
f 77/111/58 30/86/58 143/194/58 146/112/58
f 30/86/59 3/122/59 144/195/59 143/194/59
f 149/142/60 150/141/60 147/198/60 148/199/60
f 98/2/61 42/1/61 147/198/61 150/141/61
f 42/1/62 12/85/62 148/199/62 147/198/62
f 12/85/63 71/116/63 149/142/63 148/199/63
f 154/3/44 151/200/44 152/201/44 153/4/44
f 4/119/64 42/1/64 153/4/64 152/201/64
f 98/2/65 29/176/65 151/200/65 154/3/65
f 29/34/66 4/139/66 152/202/66 151/203/66
f 155/204/67 156/109/67 157/108/67 158/205/67
f 72/107/68 76/101/68 158/205/68 157/108/68
f 40/52/69 10/51/69 156/206/69 155/207/69
f 76/101/70 40/151/70 155/204/70 158/205/70
f 73/154/71 9/163/71 160/208/71 159/209/71
f 167/210/5 169/211/5 177/212/5 175/213/5
f 114/169/72 113/167/72 165/214/72 166/215/72
f 113/167/73 111/166/73 163/216/73 165/214/73
f 112/171/74 114/169/74 166/215/74 164/217/74
f 167/210/44 168/218/44 170/219/44 169/211/44
f 163/165/2 164/164/2 172/220/2 171/221/2
f 169/211/2 170/219/2 178/222/2 177/212/2
f 164/217/5 166/215/5 174/223/5 172/224/5
f 172/224/44 174/223/44 178/222/44 176/225/44
f 171/221/44 172/220/44 176/226/44 175/227/44
f 174/223/44 173/228/44 177/212/44 178/222/44
f 173/228/44 171/229/44 175/213/44 177/212/44
f 166/215/4 165/214/4 173/228/4 174/223/4
f 165/214/6 163/216/6 171/229/6 173/228/6
f 170/219/6 168/218/6 176/225/6 178/222/6
f 168/218/4 167/210/4 175/213/4 176/225/4
f 9/132/75 27/135/75 161/230/75 160/231/75
f 76/101/76 73/154/76 159/209/76 162/102/76
f 162/102/77 159/209/77 160/208/77 161/103/77
f 75/168/78 74/90/78 133/95/78 134/188/78
f 26/93/79 72/107/79 131/189/79 132/94/79
f 134/188/80 133/95/80 132/94/80 131/189/80
f 74/90/81 75/168/81 126/181/81 125/91/81
f 41/22/82 11/35/82 124/232/82 123/233/82
f 123/180/83 124/92/83 125/91/83 126/181/83
f 73/154/84 76/101/84 106/158/84 105/155/84
f 103/157/85 104/156/85 105/155/85 106/158/85
f 17/71/3 35/10/3 96/9/3 66/72/3
f 66/72/3 96/9/3 63/62/3 24/67/3
f 16/47/5 46/18/5 94/17/5 58/48/5
f 58/48/5 94/17/5 55/38/5 22/43/5
f 11/35/6 41/22/6 93/21/6 54/36/6
f 54/36/6 93/21/6 51/26/6 21/31/6
f 21/31/6 51/26/6 92/25/6 53/32/6
f 53/32/6 92/25/6 35/10/6 17/71/6
f 22/43/5 55/38/5 89/37/5 57/44/5
f 57/44/5 89/37/5 27/135/5 9/132/5
f 24/67/3 63/62/3 83/61/3 65/68/3
f 65/68/3 83/61/3 46/18/3 16/47/3
f 72/107/86 26/93/86 104/156/86 103/157/86
