# Blender v2.90.0 OBJ File: 'Basic_Building mats.blend'
# www.blender.org
mtllib Ascew_Rock_MSH.mtl
o Cube.010_Cube.006
v -0.499063 -0.059830 0.499063
v -0.515437 0.088511 0.437356
v -0.499063 -0.059830 -0.499063
v -0.499063 0.059830 -0.499063
v 0.499063 -0.059830 0.499063
v 0.398180 0.032552 0.518158
v 0.499063 -0.059830 -0.499063
v 0.499063 0.059830 -0.499063
vt 0.375000 0.000000
vt 0.625000 0.000000
vt 0.625000 0.250000
vt 0.375000 0.250000
vt 0.625000 0.500000
vt 0.375000 0.500000
vt 0.625000 0.750000
vt 0.375000 0.750000
vt 0.625000 1.000000
vt 0.375000 1.000000
vt 0.125000 0.500000
vt 0.125000 0.750000
vt 0.875000 0.500000
vt 0.875000 0.750000
vn -0.9980 -0.0627 -0.0075
vn 0.0000 0.0000 -1.0000
vn 0.9036 0.4253 0.0510
vn -0.0371 0.1566 0.9870
vn 0.0000 -1.0000 0.0000
vn 0.0292 0.9996 0.0010
usemtl None
s off
f 1/1/1 2/2/1 4/3/1 3/4/1
f 3/4/2 4/3/2 8/5/2 7/6/2
f 7/6/3 8/5/3 6/7/3 5/8/3
f 5/8/4 6/7/4 2/9/4 1/10/4
f 3/11/5 7/6/5 5/8/5 1/12/5
f 8/5/6 4/13/6 2/14/6 6/7/6
