# Blender v2.90.0 OBJ File: 'bridge.blend'
# www.blender.org
mtllib pillar1.mtl
o Pillar1_Cube.010
v -0.234081 -16.468639 -3.061512
v -0.958084 10.696259 -2.114046
v 2.667480 -16.468639 -0.555473
v 1.528038 8.844299 -0.740219
v -2.509586 -16.378109 -0.158091
v -2.243622 10.122311 0.814022
v 1.942089 -16.468639 -1.181984
v 1.216698 -16.468639 -1.808493
v 0.491310 -16.468639 -2.435003
v 0.456493 9.206326 -2.052206
v 1.111351 9.065056 -1.383821
v -2.027840 -16.465336 0.473034
v -1.289337 -16.468639 1.093065
v -0.563950 -16.468639 1.719576
v -0.652294 9.624651 1.912354
v -1.592205 10.710434 1.345264
v 0.787949 -16.468639 1.620695
v 1.414459 -16.468639 0.895306
v 2.040970 -16.468639 0.169916
v 1.947983 9.240778 0.572412
v 1.403111 9.083433 1.236862
v 0.833317 9.772291 1.846838
v -0.860588 -16.468639 -2.336123
v -1.487099 -16.468639 -1.610733
v -2.200504 -16.458857 -0.846754
v -2.257912 9.998093 -0.773727
v -1.514027 9.750332 -1.478905
v 1.276428 8.563425 -0.081856
v 0.524487 8.686813 0.555479
v -0.037090 9.567596 1.194029
v 0.318306 8.913639 -0.816217
v -0.625462 9.445425 -0.218895
v -0.989723 10.626034 0.628395
v -0.231178 9.219585 -1.389605
v -1.013737 9.237560 -0.774954
v -1.640789 9.951889 0.111973
v 1.996384 2.695171 -0.966825
v -2.815498 3.027021 -0.052488
v -0.845757 2.695169 -2.183229
v 0.531521 2.695169 -2.257889
v 1.215611 3.010439 -1.604174
v -0.549175 2.695169 1.860394
v -1.288929 2.695169 1.228497
v -2.029316 2.695171 0.586018
v 2.098232 2.695169 0.385313
v 1.469631 2.695169 1.094683
v 0.832668 2.695169 1.790464
v -2.126549 2.695169 -0.761110
v -1.485401 2.695169 -1.466299
v -1.061142 3.893484 -2.698811
v 2.513844 3.893486 -1.168758
v -2.549877 3.893486 0.784483
v 0.671268 3.893484 -2.792721
v 1.596409 3.893484 -1.973961
v -0.688084 3.893484 2.387457
v -1.618584 3.893484 1.592625
v 2.641953 3.893484 0.532026
v 1.851265 3.893484 1.424309
v 1.050064 3.893484 2.299494
v -2.672184 3.893484 -0.910000
v -1.865715 3.893484 -1.797020
v -1.912552 1.142219 -0.162569
v -0.550625 0.812866 1.846563
v -0.935581 0.743139 0.578859
v -1.941067 0.760805 0.266977
v 2.155014 1.043626 0.572090
v 1.469299 0.813160 1.088820
v 0.828274 0.812866 1.773788
v -2.125278 0.812866 -0.773312
v -1.480362 0.807729 -1.481112
v -0.775867 1.372247 -2.193670
v 2.568920 -2.297108 -0.430201
v -2.103947 -1.653869 -0.258587
v 0.324749 -2.241008 -1.925669
v 1.164215 -2.245726 -1.332794
v 1.902004 -2.384300 -0.917379
v -0.552593 -1.738668 1.827814
v -1.289024 -1.738668 1.197163
v -2.020260 -1.738401 0.556179
v 1.885807 -1.577722 0.589632
v 1.468567 -1.744984 1.036278
v 0.822319 -1.738668 1.751184
v -2.102108 -1.711142 -0.788637
v -1.490086 -1.711212 -1.397318
v -0.647991 -1.546882 -2.090809
v -0.178699 -1.077506 -2.092627
v 1.209713 1.498523 -0.300079
v 0.022381 1.137337 -1.369726
v 0.670414 1.344015 -0.864332
v 2.399395 -1.758816 -0.599676
v 0.445240 -2.086124 -1.783028
v 1.179375 -2.075584 -1.309340
v 1.824699 -2.286423 -0.979174
v 1.809891 1.316467 0.012430
v 1.872715 -1.348913 0.019466
v 0.147434 -1.429658 -1.855692
v 0.544216 -1.223757 -1.394979
v 1.427567 -1.332124 -0.618408
v -1.378269 -0.397608 -1.705917
v -1.861568 -0.465399 -0.180872
v -0.551609 -0.462901 1.837189
v -0.935612 -0.532627 0.569843
v 1.911762 -0.268503 0.826296
v 1.460541 -0.463010 1.061825
v 0.825298 -0.462901 1.762487
v -2.124416 -0.462901 -0.781582
v -1.863831 -0.438280 -1.299440
v -0.630821 -0.541752 -1.577578
v 1.672970 -0.500386 0.312910
v -0.339905 -0.461382 -1.202690
v 0.532810 -0.417460 -0.937094
v 1.085106 -0.536300 -0.212645
v 0.581043 -16.468639 1.860258
v -0.324589 -16.468639 1.926310
v -0.309452 9.658777 2.166302
v 0.638824 9.753004 2.064646
v -0.306992 2.695169 2.064531
v 0.627457 2.695169 2.009655
v 0.678730 3.893484 2.696127
v -0.256741 3.893484 2.751036
v -0.307800 0.812866 2.051729
v 0.622120 0.812866 1.995754
v 0.615208 -1.738668 1.976606
v -0.309265 -1.738668 2.034071
v 0.618523 -0.462900 1.986328
v -0.308365 -0.462900 2.043041
vt 0.812500 0.687500
vt 0.875000 0.687500
vt 0.812500 0.750000
vt 0.567500 0.687500
vt 0.567500 0.625000
vt 0.567500 0.625000
vt 0.567500 0.687500
vt 0.567500 0.312500
vt 0.567500 0.250000
vt 0.567500 0.250000
vt 0.567500 0.312500
vt 0.567500 0.375000
vt 0.567500 0.375000
vt 0.567500 0.437500
vt 0.567500 0.437500
vt 0.567500 0.812500
vt 0.567500 0.750000
vt 0.567500 0.750000
vt 0.567500 0.812500
vt 0.567500 0.875000
vt 0.567500 0.875000
vt 0.812500 0.500000
vt 0.875000 0.562500
vt 0.812500 0.562500
vt 0.875000 0.625000
vt 0.812500 0.625000
vt 0.625000 0.456898
vt 0.567500 0.466058
vt 0.625000 0.437500
vt 0.625000 0.625000
vt 0.687500 0.625000
vt 0.687500 0.687500
vt 0.625000 0.687500
vt 0.750000 0.625000
vt 0.750000 0.687500
vt 0.625000 0.562500
vt 0.687500 0.562500
vt 0.750000 0.562500
vt 0.567500 0.562500
vt 0.567500 0.533370
vt 0.625000 0.537554
vt 0.687500 0.500000
vt 0.750000 0.500000
vt 0.567500 0.937500
vt 0.567500 0.937500
vt 0.548592 0.437500
vt 0.567500 0.457351
vt 0.548592 0.457502
vt 0.687500 0.750000
vt 0.750000 0.750000
vt 0.548592 0.875000
vt 0.548592 0.937500
vt 0.548592 0.812500
vt 0.548592 0.750000
vt 0.548592 0.375000
vt 0.548592 0.312500
vt 0.548592 0.625000
vt 0.548592 0.687500
vt 0.548592 0.562500
vt 0.567500 0.562500
vt 0.548592 0.250000
vt 0.548592 0.187500
vt 0.567500 0.187500
vt 0.548592 0.125000
vt 0.567500 0.125000
vt 0.548592 0.062500
vt 0.567500 0.062500
vt 0.535777 0.437500
vt 0.535777 0.457603
vt 0.668102 0.500000
vt 0.567500 0.541927
vt 0.625000 0.125000
vt 0.567500 0.125000
vt 0.567500 0.062500
vt 0.625000 0.062500
vt 0.625000 0.187500
vt 0.567500 0.187500
vt 0.625000 0.750000
vt 0.625000 0.812500
vt 0.567500 0.000000
vt 0.625000 0.000000
vt 0.625000 0.375000
vt 0.625000 0.312500
vt 0.625000 0.875000
vt 0.625000 0.937500
vt 0.625000 0.250000
vt 0.548592 0.541844
vt 0.567500 0.000000
vt 0.535777 0.687500
vt 0.535777 0.750000
vt 0.535777 0.541789
vt 0.535777 0.562500
vt 0.522962 0.062500
vt 0.522962 0.000000
vt 0.522962 0.000000
vt 0.522962 0.062500
vt 0.522962 0.125000
vt 0.522962 0.125000
vt 0.522962 0.437500
vt 0.522962 0.457677
vt 0.535777 0.625000
vt 0.535777 0.312500
vt 0.535777 0.375000
vt 0.535777 0.812500
vt 0.535777 0.875000
vt 0.535777 0.937500
vt 0.375000 0.875000
vt 0.522962 0.875000
vt 0.522962 0.937500
vt 0.375000 0.937500
vt 0.375000 0.812500
vt 0.522962 0.812500
vt 0.375000 0.750000
vt 0.522962 0.750000
vt 0.375000 0.375000
vt 0.522962 0.375000
vt 0.375000 0.437500
vt 0.375000 0.312500
vt 0.522962 0.312500
vt 0.375000 0.250000
vt 0.522962 0.250000
vt 0.375000 0.625000
vt 0.522962 0.625000
vt 0.522962 0.687500
vt 0.375000 0.687500
vt 0.375000 0.562500
vt 0.522962 0.562500
vt 0.375000 0.125000
vt 0.522962 0.187500
vt 0.375000 0.187500
vt 0.375000 0.062500
vt 0.375000 0.000000
vt 0.375000 0.541876
vt 0.522962 0.541763
vt 0.522962 1.000000
vt 0.375000 1.000000
vt 0.522962 0.062500
vt 0.535777 1.000000
vt 0.548592 1.000000
vt 0.535777 1.000000
vt 0.522962 0.187500
vt 0.522962 0.250000
vt 0.535777 0.187500
vt 0.535777 0.250000
vt 0.535777 0.000000
vt 0.548592 0.000000
vt 0.535777 0.062500
vt 0.535777 0.125000
vt 0.522962 0.187500
vt 0.522962 0.250000
vt 0.522962 0.125000
vt 0.522962 1.000000
vt 0.375000 0.458141
vn 0.5755 0.5707 0.5858
vn -0.6065 -0.3792 0.6989
vn 0.9116 -0.4052 -0.0687
vn 0.6898 -0.3879 0.6113
vn 0.6799 -0.3877 0.6224
vn -0.9734 -0.0582 -0.2215
vn -0.6821 -0.3876 -0.6201
vn -0.6738 -0.3960 0.6238
vn -0.7200 0.6937 0.0208
vn 0.0312 0.9340 0.3559
vn 0.1100 0.9644 0.2407
vn 0.7321 0.0785 0.6766
vn -0.3879 0.7918 -0.4717
vn 0.1236 0.7044 -0.6990
vn 0.2317 0.9667 -0.1084
vn 0.5658 0.7157 0.4095
vn 0.7304 0.5837 -0.3546
vn 0.4139 0.9061 0.0876
vn -0.6239 0.0708 0.7783
vn 0.2577 0.7084 -0.6571
vn -0.3408 0.8853 -0.3164
vn -0.6878 -0.3877 -0.6137
vn 0.7313 -0.0074 0.6820
vn 0.1857 0.9795 -0.0783
vn 0.5204 0.8514 -0.0664
vn 0.2207 0.6550 0.7227
vn -0.7262 -0.0115 -0.6874
vn -0.7395 0.0036 -0.6731
vn -0.9476 -0.2199 -0.2318
vn 0.7339 -0.0050 0.6793
vn 0.6768 0.0484 0.7346
vn -0.4648 -0.2635 0.8453
vn -0.8460 -0.1654 0.5069
vn 0.6724 -0.3894 0.6295
vn 0.2284 -0.5841 -0.7789
vn 0.5198 -0.5591 -0.6459
vn 0.6722 -0.4969 -0.5488
vn 0.7336 -0.0074 0.6795
vn -0.8612 -0.2718 0.4295
vn -0.1030 0.9888 -0.1077
vn -0.5961 -0.3802 0.7072
vn 0.6854 0.1365 -0.7152
vn 0.7375 0.1729 -0.6528
vn -0.9976 0.0577 0.0393
vn -0.5687 0.0501 0.8210
vn -0.6520 0.0293 0.7576
vn 0.0415 0.1090 -0.9932
vn 0.7513 0.0906 0.6537
vn 0.7511 0.0830 0.6549
vn -0.7090 0.0720 -0.7015
vn -0.7686 0.0729 -0.6355
vn 0.9660 0.1666 -0.1976
vn -0.6010 -0.3791 0.7036
vn -0.6449 -0.0050 0.7642
vn 0.5364 -0.4308 -0.7257
vn 0.6531 -0.4333 -0.6210
vn -0.0496 -0.4022 -0.9142
vn -0.8144 -0.2450 0.5261
vn -0.6457 -0.0050 0.7636
vn 0.2587 -0.0266 -0.9656
vn 0.5508 0.1859 -0.8137
vn 0.7354 -0.0074 0.6775
vn -0.9569 -0.0017 0.2904
vn -0.2964 -0.0067 0.9551
vn 0.5464 0.0203 0.8373
vn 0.7355 -0.0135 0.6774
vn -0.9288 -0.0201 0.3700
vn -0.8023 0.0811 -0.5914
vn -0.7026 0.0725 -0.7079
vn -0.6957 0.0160 -0.7182
vn -0.7193 0.0087 -0.6946
vn -0.9684 0.0162 -0.2489
vn 0.7493 -0.0084 0.6622
vn 0.7475 -0.0100 0.6642
vn 0.7990 -0.0043 0.6013
vn -0.6512 -0.0046 0.7589
vn -0.6520 -0.0052 0.7582
vn 0.5814 0.0232 -0.8133
vn 0.6144 0.0320 -0.7883
vn 0.4400 0.0543 -0.8963
vn 0.6241 0.0138 -0.7813
vn -0.6501 -0.0050 0.7598
vn -0.9307 0.0133 0.3655
vn -0.7566 0.0215 -0.6535
vn 0.7379 0.2661 -0.6202
vn 0.1056 -0.2974 -0.9489
vn 0.5919 -0.0625 -0.8036
vn 0.4711 -0.0169 -0.8819
vn 0.5623 -0.1206 -0.8181
vn 0.7135 -0.1942 -0.6732
vn 0.4624 -0.0935 -0.8817
vn 0.7626 -0.0552 -0.6445
vn 0.9604 -0.1349 -0.2438
vn 0.3133 0.6848 -0.6579
vn 0.5853 0.4384 -0.6820
vn 0.5796 0.2781 -0.7659
vn 0.8596 -0.1886 -0.4749
vn 0.6754 0.4599 -0.5764
vn 0.3228 0.5657 -0.7588
vn 0.6467 0.6769 -0.3515
vn 0.6570 0.4680 -0.5911
vn 0.9653 0.1330 -0.2248
vn -0.0291 0.4550 -0.8900
vn -0.6208 -0.1288 -0.7733
vn -0.7857 -0.0980 -0.6108
vn -0.9721 0.0801 0.2205
vn 0.7413 -0.0082 0.6711
vn 0.6365 -0.0820 0.7669
vn 0.8320 0.4748 0.2870
vn -0.5690 0.5045 0.6494
vn -0.8396 0.2411 0.4868
vn -0.6463 -0.0050 0.7631
vn -0.7531 0.3974 0.5243
vn 0.2778 -0.3185 -0.9063
vn 0.0673 -0.0077 0.9977
vn 0.0508 -0.4981 0.8656
vn 0.0772 0.1044 0.9915
vn 0.0594 -0.0072 0.9982
vn 0.0616 -0.0074 0.9981
vn 0.0606 -0.0072 0.9981
vn 0.7468 -0.0073 0.6650
usemtl None
s off
f 34/1/1 10/2/1 2/3/1
f 44/4/2 43/5/2 56/6/2 52/7/2
f 45/8/3 37/9/3 51/10/3 57/11/3
f 46/12/4 45/8/4 57/11/4 58/13/4
f 47/14/5 46/12/5 58/13/5 59/15/5
f 48/16/6 38/17/6 52/18/6 60/19/6
f 49/20/7 48/16/7 60/19/7 61/21/7
f 38/17/8 44/4/8 52/18/8
f 20/22/9 4/23/9 28/24/9
f 28/24/10 4/23/10 11/25/10 31/26/10
f 31/26/11 11/25/11 10/2/11 34/1/11
f 116/27/12 119/28/12 59/15/12 22/29/12
f 16/30/13 33/31/13 36/32/13 6/33/13
f 33/31/14 32/34/14 35/35/14 36/32/14
f 32/34/15 31/26/15 34/1/15 35/35/15
f 15/36/16 30/37/16 33/31/16 16/30/16
f 30/37/17 29/38/17 32/34/17 33/31/17
f 29/38/18 28/24/18 31/26/18 32/34/18
f 15/36/19 55/39/19 120/40/19 115/41/19
f 22/42/20 21/43/20 29/38/20 30/37/20
f 21/43/21 20/22/21 28/24/21 29/38/21
f 39/44/22 49/20/22 61/21/22 50/45/22
f 68/46/23 47/14/23 118/47/23 122/48/23
f 6/33/24 36/32/24 26/49/24
f 36/32/25 35/35/25 27/50/25 26/49/25
f 35/35/26 34/1/26 2/3/26 27/50/26
f 70/51/27 49/20/27 39/44/27 71/52/27
f 69/53/28 48/16/28 49/20/28 70/51/28
f 62/54/29 38/17/29 48/16/29 69/53/29
f 67/55/30 46/12/30 47/14/30 68/46/30
f 66/56/31 45/8/31 46/12/31 67/55/31
f 64/57/32 43/5/32 44/4/32 65/58/32
f 63/59/33 42/60/33 43/5/33 64/57/33
f 118/47/34 47/14/34 59/15/34 119/28/34
f 37/9/35 94/61/35 87/62/35
f 37/63/36 87/62/36 89/64/36 41/65/36
f 41/65/37 89/64/37 88/66/37 40/67/37
f 105/68/38 68/46/38 122/48/38 125/69/38
f 65/58/39 44/4/39 38/17/39 62/54/39
f 115/41/40 116/70/40 22/42/40 30/37/40 15/36/40
f 42/60/41 117/71/41 120/40/41 55/39/41
f 11/72/42 54/73/42 53/74/42 10/75/42
f 4/76/43 51/77/43 54/73/43 11/72/43
f 6/78/44 26/79/44 60/19/44 52/18/44
f 16/30/45 56/6/45 55/39/45 15/36/45
f 6/33/46 52/7/46 56/6/46 16/30/46
f 10/75/47 53/74/47 50/80/47 2/81/47
f 21/82/48 58/13/48 57/11/48 20/83/48
f 22/29/49 59/15/49 58/13/49 21/82/49
f 26/79/50 27/84/50 61/21/50 60/19/50
f 2/85/51 50/45/51 61/21/51 27/84/51
f 20/83/52 57/11/52 51/10/52 4/86/52
f 43/5/53 42/60/53 55/39/53 56/6/53
f 121/87/54 117/71/54 42/60/54 63/59/54
f 37/63/55 41/65/55 54/73/55 51/77/55
f 41/65/56 40/67/56 53/74/56 54/73/56
f 40/67/57 39/88/57 50/80/57 53/74/57
f 102/89/58 65/58/58 62/54/58 100/90/58
f 126/91/59 121/87/59 63/59/59 101/92/59
f 74/93/60 85/94/60 86/95/60 91/96/60
f 75/97/61 74/93/61 91/96/61 92/98/61
f 82/99/62 105/68/62 125/69/62 123/100/62
f 101/92/63 63/59/63 64/57/63 102/101/63
f 102/101/64 64/57/64 65/58/64
f 103/102/65 66/56/65 67/55/65 104/103/65
f 104/103/66 67/55/66 68/46/66 105/68/66
f 100/90/67 62/54/67 69/53/67 106/104/67
f 106/104/68 69/53/68 70/51/68 107/105/68
f 107/105/69 70/51/69 71/52/69 99/106/69
f 24/107/70 84/108/70 85/109/70 23/110/70
f 25/111/71 83/112/71 84/108/71 24/107/71
f 5/113/72 73/114/72 83/112/72 25/111/72
f 18/115/73 81/116/73 82/99/73 17/117/73
f 19/118/74 80/119/74 81/116/74 18/115/74
f 3/120/75 72/121/75 80/119/75 19/118/75
f 13/122/76 78/123/76 79/124/76 12/125/76
f 14/126/77 77/127/77 78/123/77 13/122/77
f 8/128/78 75/97/78 76/129/78 7/130/78
f 9/131/79 74/93/79 75/97/79 8/128/79
f 1/132/80 85/94/80 74/93/80 9/131/80
f 7/130/81 76/129/81 72/121/81 3/120/81
f 114/133/82 124/134/82 77/127/82 14/126/82
f 12/125/83 79/124/83 73/114/83 5/113/83
f 23/110/84 85/135/84 1/136/84
f 91/96/85 86/95/85 96/137/85
f 99/138/86 71/139/86 108/140/86
f 72/121/87 76/129/87 93/141/87 90/142/87
f 76/129/88 75/97/88 92/98/88 93/141/88
f 112/143/89 87/62/89 94/61/89 109/144/89
f 108/145/90 71/146/90 88/66/90 110/147/90
f 110/147/91 88/66/91 89/64/91 111/148/91
f 111/148/92 89/64/92 87/62/92 112/143/92
f 66/56/93 94/61/93 37/9/93 45/8/93
f 90/142/94 93/141/94 98/149/94 95/150/94
f 93/141/95 92/98/95 97/151/95 98/149/95
f 92/98/96 91/96/96 96/137/96 97/151/96
f 109/144/97 94/61/97 66/56/97 103/102/97
f 97/151/98 111/148/98 112/143/98 98/149/98
f 96/137/99 110/147/99 111/148/99 97/151/99
f 86/95/100 108/145/100 110/147/100 96/137/100
f 98/149/101 112/143/101 109/144/101 95/150/101
f 95/150/102 109/144/102 103/102/102 80/119/102
f 85/135/103 99/138/103 108/140/103 86/152/103
f 84/108/104 107/105/104 99/106/104 85/109/104
f 83/112/105 106/104/105 107/105/105 84/108/105
f 73/114/106 100/90/106 106/104/106 83/112/106
f 81/116/107 104/103/107 105/68/107 82/99/107
f 80/119/108 103/102/108 104/103/108 81/116/108
f 90/142/109 95/150/109 80/119/109 72/121/109
f 78/123/110 102/89/110 79/124/110
f 77/127/111 101/92/111 102/101/111 78/123/111
f 124/134/112 126/91/112 101/92/112 77/127/112
f 79/124/113 102/89/113 100/90/113 73/114/113
f 40/67/114 88/66/114 71/146/114 39/88/114
f 124/134/115 114/133/115 113/153/115 123/100/115
f 120/40/116 117/71/116 118/47/116 119/28/116
f 115/41/117 120/40/117 119/28/117 116/27/117
f 117/71/118 121/87/118 122/48/118 118/47/118
f 126/91/119 124/134/119 123/100/119 125/69/119
f 121/87/120 126/91/120 125/69/120 122/48/120
f 17/117/121 82/99/121 123/100/121 113/153/121
